<svg width="130" height="40" viewBox="0 0 130 40" fill="none" xmlns="http://www.w3.org/2000/svg">
<g clip-path="url(#clip0_1_436)">
<path d="M119.648 0.00013H10.3582C9.95986 0.00013 9.56627 0.00013 9.16895 0.00212999C8.83635 0.00412999 8.50641 0.00993997 8.17062 0.01483C7.44114 0.0227317 6.71337 0.081806 5.99364 0.191539C5.27492 0.303662 4.57871 0.515044 3.92857 0.818537C3.27922 1.1246 2.68589 1.52229 2.17011 1.99719C1.65162 2.47076 1.21942 3.01814 0.890121 3.61828C0.559918 4.21723 0.330954 4.85905 0.211137 5.52159C0.090181 6.1833 0.0250935 6.85263 0.0164586 7.52359C0.00637702 7.83018 0.00531237 8.1378 0 8.44444V31.5586C0.00531237 31.8691 0.00637702 32.1699 0.0164586 32.4805C0.0250961 33.1514 0.0901836 33.8207 0.211137 34.4824C0.330623 35.1453 0.5596 35.7875 0.890121 36.3867C1.21927 36.9849 1.65153 37.5301 2.17011 38.001C2.68394 38.478 3.27765 38.876 3.92857 39.1797C4.57871 39.484 5.27484 39.6967 5.99364 39.8105C6.71349 39.9194 7.44118 39.9785 8.17062 39.9873C8.50641 39.9941 8.83635 39.998 9.16895 39.998C9.56626 40 9.95988 40 10.3582 40H119.648C120.038 40 120.435 40 120.825 39.998C121.156 39.998 121.496 39.9941 121.827 39.9873C122.555 39.9789 123.281 39.9198 124 39.8105C124.721 39.6959 125.419 39.4833 126.073 39.1797C126.723 38.8758 127.316 38.4779 127.829 38.001C128.347 37.5282 128.78 36.9835 129.113 36.3867C129.441 35.7871 129.668 35.145 129.786 34.4824C129.907 33.8207 129.974 33.1515 129.987 32.4805C129.992 32.1699 129.992 31.8691 129.992 31.5586C130 31.1953 130 30.834 130 30.4648V9.53623C130 9.17002 130 8.80674 129.992 8.44444C129.992 8.1378 129.992 7.83018 129.987 7.52355C129.974 6.85253 129.907 6.18335 129.786 5.52155C129.668 4.8594 129.441 4.21762 129.113 3.61824C128.442 2.41532 127.379 1.43615 126.073 0.818447C125.419 0.515696 124.721 0.304369 124 0.191449C123.281 0.0812325 122.555 0.0221377 121.827 0.01469C121.496 0.00980997 121.156 0.00394999 120.825 0.00199999C120.435 0 120.038 0.00013 119.648 0.00013Z" fill="#A6A6A6"/>
<path d="M9.21921 38.998C8.88848 38.998 8.56574 38.9941 8.2376 38.9874C7.55784 38.9793 6.87967 38.9251 6.20865 38.8254C5.58296 38.7267 4.97683 38.5433 4.41026 38.2811C3.84888 38.021 3.33687 37.68 2.89382 37.2712C2.44436 36.8671 2.07016 36.3985 1.78605 35.8839C1.49882 35.3659 1.30004 34.8107 1.19663 34.2376C1.08496 33.6218 1.02454 32.9991 1.01589 32.3749C1.00901 32.1654 1 31.4679 1 31.4679V8.51947C1 8.51947 1.0096 7.83262 1.01595 7.63083C1.02422 7.00764 1.08429 6.38594 1.19563 5.77109C1.29923 5.19642 1.49816 4.63961 1.78555 4.11994C2.06861 3.60566 2.44073 3.13669 2.88749 2.7312C3.33374 2.32186 3.8474 1.97911 4.40973 1.71547C4.975 1.45408 5.57998 1.27193 6.20441 1.17511C6.87763 1.07434 7.55816 1.01986 8.24027 1.01213L9.21974 1H120.775L121.766 1.01262C122.442 1.01997 123.116 1.07396 123.783 1.17414C124.414 1.27217 125.025 1.45559 125.597 1.71838C126.724 2.2497 127.64 3.0903 128.219 4.12236C128.501 4.63845 128.697 5.19072 128.8 5.76042C128.912 6.38031 128.975 7.0069 128.988 7.6352C128.991 7.91653 128.991 8.21873 128.991 8.51947C129 8.892 129 9.24658 129 9.60407V30.3949C129 30.7558 129 31.1079 128.991 31.463C128.991 31.786 128.991 32.082 128.987 32.3866C128.975 33.0036 128.913 33.619 128.802 34.2278C128.7 34.8051 128.503 35.3646 128.216 35.8868C127.929 36.3959 127.557 36.8605 127.113 37.2634C126.67 37.6745 126.157 38.0175 125.594 38.2792C125.024 38.5434 124.413 38.7275 123.783 38.8254C123.112 38.9257 122.434 38.9798 121.754 38.9874C121.436 38.9941 121.104 38.998 120.78 38.998L119.604 39L9.21921 38.998Z" fill="black"/>
<path d="M29.7973 20.3006C29.8081 19.4659 30.0298 18.6475 30.4418 17.9216C30.8538 17.1956 31.4428 16.5857 32.1539 16.1485C31.7021 15.5034 31.1062 14.9724 30.4134 14.5979C29.7205 14.2233 28.9499 14.0155 28.1627 13.9908C26.4835 13.8146 24.8555 14.9957 23.9998 14.9957C23.1275 14.9957 21.81 14.0083 20.3913 14.0375C19.4736 14.0672 18.5793 14.334 17.7954 14.8121C17.0115 15.2901 16.3649 15.9631 15.9184 16.7654C13.9844 20.1138 15.427 25.0349 17.2796 27.7415C18.2065 29.0668 19.2898 30.5473 20.7072 30.4948C22.0943 30.4372 22.6123 29.6103 24.2866 29.6103C25.9454 29.6103 26.4314 30.4948 27.8776 30.4614C29.366 30.4372 30.3038 29.1302 31.1981 27.7923C31.8641 26.8479 32.3766 25.8042 32.7166 24.6997C31.8518 24.334 31.1139 23.7218 30.5948 22.9395C30.0757 22.1572 29.7983 21.2394 29.7973 20.3006Z" fill="white"/>
<path d="M27.0657 12.2108C27.8772 11.2366 28.277 9.98445 28.1802 8.72021C26.9404 8.85044 25.7951 9.44299 24.9726 10.3798C24.5705 10.8375 24.2625 11.3699 24.0663 11.9467C23.87 12.5235 23.7894 13.1333 23.8289 13.7412C24.4491 13.7476 25.0626 13.6132 25.6232 13.3481C26.1839 13.083 26.6771 12.6942 27.0657 12.2108Z" fill="white"/>
<path d="M47.3307 27.1397H42.5973L41.4606 30.4961H39.4557L43.9391 18.0781H46.0221L50.5055 30.4961H48.4664L47.3307 27.1397ZM43.0875 25.5908H46.8395L44.9899 20.1436H44.9381L43.0875 25.5908Z" fill="white"/>
<path d="M60.1881 25.9699C60.1881 28.7834 58.6823 30.591 56.4098 30.591C55.8342 30.6211 55.2617 30.4885 54.7579 30.2084C54.2541 29.9283 53.8394 29.5119 53.5612 29.007H53.5182V33.4914H51.6598V21.4426H53.4586V22.9485H53.4928C53.7838 22.446 54.2055 22.0318 54.7131 21.7499C55.2208 21.4681 55.7953 21.3291 56.3756 21.3479C58.6735 21.3479 60.1881 23.1643 60.1881 25.9699ZM58.278 25.9699C58.278 24.1369 57.3307 22.9319 55.8854 22.9319C54.4655 22.9319 53.5104 24.1623 53.5104 25.9699C53.5104 27.7942 54.4655 29.0158 55.8854 29.0158C57.3307 29.0158 58.278 27.8196 58.278 25.9699Z" fill="white"/>
<path d="M70.1529 25.9699C70.1529 28.7834 68.6471 30.591 66.3746 30.591C65.7989 30.6211 65.2264 30.4885 64.7227 30.2084C64.2189 29.9283 63.8041 29.5119 63.526 29.007H63.483V33.4914H61.6246V21.4426H63.4234V22.9484H63.4576C63.7485 22.446 64.1703 22.0318 64.6779 21.7499C65.1855 21.4681 65.7601 21.3291 66.3404 21.3479C68.6383 21.3479 70.1529 23.1643 70.1529 25.9699ZM68.2428 25.9699C68.2428 24.1369 67.2955 22.9318 65.8502 22.9318C64.4303 22.9318 63.4752 24.1623 63.4752 25.9699C63.4752 27.7942 64.4303 29.0158 65.8502 29.0158C67.2955 29.0158 68.2428 27.8195 68.2428 25.9699Z" fill="white"/>
<path d="M76.7389 27.0362C76.8766 28.2676 78.0729 29.0762 79.7077 29.0762C81.2741 29.0762 82.401 28.2676 82.401 27.1572C82.401 26.1934 81.7213 25.6162 80.112 25.2207L78.5026 24.833C76.2223 24.2822 75.1637 23.2158 75.1637 21.4854C75.1637 19.3428 77.0309 17.8711 79.6823 17.8711C82.3063 17.8711 84.1051 19.3428 84.1657 21.4854H82.2897C82.1774 20.2461 81.153 19.4981 79.6559 19.4981C78.1588 19.4981 77.1344 20.2549 77.1344 21.3565C77.1344 22.2344 77.7887 22.751 79.3893 23.1465L80.7574 23.4824C83.3053 24.0849 84.3639 25.1084 84.3639 26.9248C84.3639 29.248 82.5133 30.7031 79.5699 30.7031C76.816 30.7031 74.9567 29.2822 74.8365 27.0361L76.7389 27.0362Z" fill="white"/>
<path d="M88.3746 19.2998V21.4424H90.0963V22.9141H88.3746V27.9053C88.3746 28.6807 88.7194 29.042 89.4762 29.042C89.6806 29.0384 89.8846 29.0241 90.0875 28.999V30.4619C89.7472 30.5255 89.4014 30.5543 89.0553 30.5478C87.2223 30.5478 86.5074 29.8593 86.5074 28.1035V22.9141H85.191V21.4424H86.5074V19.2998H88.3746Z" fill="white"/>
<path d="M91.0934 25.9697C91.0934 23.1211 92.7712 21.3311 95.3874 21.3311C98.0124 21.3311 99.6823 23.1211 99.6823 25.9697C99.6823 28.8262 98.0212 30.6084 95.3874 30.6084C92.7545 30.6084 91.0934 28.8262 91.0934 25.9697ZM97.7887 25.9697C97.7887 24.0156 96.8932 22.8623 95.3874 22.8623C93.8815 22.8623 92.987 24.0244 92.987 25.9697C92.987 27.9316 93.8815 29.0762 95.3874 29.0762C96.8932 29.0762 97.7887 27.9316 97.7887 25.9697Z" fill="white"/>
<path d="M101.214 21.4425H102.987V22.9835H103.03C103.15 22.5022 103.432 22.0769 103.828 21.779C104.225 21.4811 104.712 21.3288 105.208 21.3478C105.422 21.347 105.635 21.3703 105.844 21.4171V23.1554C105.574 23.0728 105.292 23.0348 105.009 23.0431C104.739 23.0321 104.47 23.0797 104.22 23.1826C103.971 23.2855 103.746 23.4412 103.562 23.6391C103.378 23.837 103.239 24.0724 103.155 24.3291C103.07 24.5857 103.042 24.8576 103.073 25.1261V30.4962H101.214L101.214 21.4425Z" fill="white"/>
<path d="M114.413 27.8369C114.163 29.4805 112.562 30.6084 110.514 30.6084C107.88 30.6084 106.246 28.8437 106.246 26.0127C106.246 23.1729 107.889 21.3311 110.436 21.3311C112.941 21.3311 114.516 23.0518 114.516 25.7969V26.4336H108.122V26.5459C108.092 26.8791 108.134 27.2148 108.244 27.5306C108.354 27.8464 108.53 28.1352 108.761 28.3778C108.991 28.6203 109.27 28.8111 109.58 28.9374C109.89 29.0637 110.223 29.1226 110.557 29.1103C110.996 29.1515 111.437 29.0498 111.814 28.8203C112.191 28.5909 112.483 28.246 112.648 27.8369L114.413 27.8369ZM108.13 25.1348H112.657C112.674 24.8352 112.628 24.5354 112.523 24.2541C112.419 23.9729 112.257 23.7164 112.049 23.5006C111.84 23.2849 111.589 23.1145 111.312 23.0003C111.034 22.8861 110.736 22.8305 110.436 22.8369C110.134 22.8351 109.834 22.8933 109.553 23.008C109.273 23.1227 109.019 23.2918 108.805 23.5054C108.59 23.7191 108.42 23.973 108.305 24.2527C108.189 24.5323 108.13 24.8321 108.13 25.1348Z" fill="white"/>
<path d="M42.8546 8.73089C43.2442 8.70293 43.6352 8.76179 43.9993 8.90323C44.3634 9.04466 44.6916 9.26514 44.9602 9.54876C45.2288 9.83239 45.4311 10.1721 45.5525 10.5434C45.6739 10.9146 45.7114 11.3082 45.6622 11.6957C45.6622 13.602 44.632 14.6977 42.8546 14.6977H40.6993V8.73089H42.8546ZM41.6261 13.8539H42.7511C43.0295 13.8705 43.3081 13.8249 43.5666 13.7203C43.8252 13.6157 44.0571 13.4547 44.2456 13.2491C44.4341 13.0436 44.5744 12.7986 44.6563 12.532C44.7381 12.2653 44.7595 11.9838 44.7189 11.7079C44.7566 11.4331 44.733 11.1533 44.6499 10.8886C44.5668 10.624 44.4262 10.381 44.2381 10.177C44.05 9.9731 43.8192 9.81329 43.5621 9.70905C43.305 9.60481 43.0281 9.55873 42.7511 9.5741H41.6261V13.8539Z" fill="white"/>
<path d="M46.7091 12.4443C46.6808 12.1484 46.7146 11.8498 46.8085 11.5677C46.9023 11.2857 47.0541 11.0263 47.254 10.8063C47.4539 10.5864 47.6977 10.4106 47.9695 10.2903C48.2414 10.17 48.5353 10.1079 48.8326 10.1079C49.1299 10.1079 49.4239 10.17 49.6957 10.2903C49.9676 10.4106 50.2113 10.5864 50.4112 10.8063C50.6112 11.0263 50.7629 11.2857 50.8568 11.5677C50.9506 11.8498 50.9845 12.1484 50.9562 12.4443C50.985 12.7405 50.9515 13.0395 50.858 13.322C50.7644 13.6045 50.6127 13.8644 50.4127 14.0848C50.2127 14.3052 49.9688 14.4813 49.6967 14.6019C49.4246 14.7224 49.1302 14.7847 48.8326 14.7847C48.535 14.7847 48.2407 14.7224 47.9685 14.6019C47.6964 14.4813 47.4525 14.3052 47.2525 14.0848C47.0525 13.8644 46.9009 13.6045 46.8073 13.322C46.7137 13.0395 46.6802 12.7405 46.7091 12.4443ZM50.0421 12.4443C50.0421 11.4682 49.6036 10.8974 48.8341 10.8974C48.0616 10.8974 47.6271 11.4682 47.6271 12.4443C47.6271 13.4282 48.0617 13.9946 48.8341 13.9946C49.6036 13.9946 50.0421 13.4243 50.0421 12.4443Z" fill="white"/>
<path d="M56.6017 14.6978H55.6798L54.7491 11.3813H54.6788L53.7521 14.6978H52.839L51.5978 10.1948H52.4991L53.3058 13.6308H53.3722L54.298 10.1948H55.1505L56.0763 13.6308H56.1466L56.9493 10.1948H57.838L56.6017 14.6978Z" fill="white"/>
<path d="M58.882 10.1949H59.7374V10.9102H59.8038C59.9165 10.6533 60.1065 10.4379 60.3474 10.2941C60.5882 10.1503 60.868 10.0852 61.1476 10.1079C61.3667 10.0915 61.5867 10.1245 61.7913 10.2046C61.9959 10.2847 62.1798 10.4098 62.3295 10.5707C62.4792 10.7315 62.5908 10.924 62.656 11.1338C62.7212 11.3436 62.7383 11.5654 62.7062 11.7827V14.6977H61.8175V12.0059C61.8175 11.2823 61.5031 10.9224 60.8458 10.9224C60.6971 10.9155 60.5486 10.9408 60.4105 10.9966C60.2725 11.0525 60.1481 11.1375 60.046 11.2459C59.9439 11.3543 59.8664 11.4834 59.8188 11.6246C59.7713 11.7657 59.7549 11.9154 59.7706 12.0635V14.6978H58.882L58.882 10.1949Z" fill="white"/>
<path d="M64.1222 8.43701H65.0109V14.6978H64.1222V8.43701Z" fill="white"/>
<path d="M66.2462 12.4444C66.2179 12.1484 66.2518 11.8499 66.3457 11.5678C66.4395 11.2857 66.5913 11.0263 66.7913 10.8064C66.9912 10.5864 67.235 10.4106 67.5068 10.2903C67.7787 10.17 68.0727 10.1079 68.37 10.1079C68.6673 10.1079 68.9613 10.17 69.2332 10.2903C69.505 10.4106 69.7488 10.5864 69.9487 10.8064C70.1487 11.0263 70.3005 11.2857 70.3943 11.5678C70.4882 11.8499 70.5221 12.1484 70.4938 12.4444C70.5226 12.7406 70.4891 13.0396 70.3955 13.3221C70.3019 13.6046 70.1502 13.8645 69.9502 14.0849C69.7502 14.3053 69.5062 14.4814 69.2341 14.6019C68.962 14.7225 68.6676 14.7847 68.37 14.7847C68.0724 14.7847 67.778 14.7225 67.5059 14.6019C67.2338 14.4814 66.9899 14.3053 66.7898 14.0849C66.5898 13.8645 66.4381 13.6046 66.3445 13.3221C66.2509 13.0396 66.2174 12.7406 66.2462 12.4444ZM69.5792 12.4444C69.5792 11.4683 69.1407 10.8975 68.3712 10.8975C67.5988 10.8975 67.1642 11.4683 67.1642 12.4444C67.1642 13.4283 67.5988 13.9947 68.3712 13.9947C69.1408 13.9947 69.5792 13.4244 69.5792 12.4444Z" fill="white"/>
<path d="M71.4293 13.4243C71.4293 12.6138 72.0328 12.1465 73.1041 12.0801L74.3239 12.0098V11.6211C74.3239 11.1455 74.0094 10.877 73.402 10.877C72.9059 10.877 72.5621 11.0591 72.4635 11.3774H71.6031C71.694 10.604 72.4215 10.1079 73.443 10.1079C74.5719 10.1079 75.2086 10.6699 75.2086 11.6211V14.6978H74.3531V14.0649H74.2828C74.1401 14.2919 73.9397 14.477 73.7021 14.6012C73.4645 14.7254 73.1981 14.7843 72.9303 14.7719C72.7413 14.7916 72.5502 14.7714 72.3694 14.7127C72.1887 14.654 72.0222 14.5581 71.8808 14.4311C71.7394 14.3042 71.6262 14.149 71.5484 13.9756C71.4706 13.8021 71.4301 13.6144 71.4293 13.4243ZM74.3239 13.0395V12.6631L73.2242 12.7334C72.6041 12.7749 72.3229 12.9858 72.3229 13.3828C72.3229 13.7881 72.6744 14.0239 73.1579 14.0239C73.2995 14.0382 73.4426 14.0239 73.5786 13.9819C73.7146 13.9398 73.8408 13.8707 73.9495 13.7789C74.0583 13.6871 74.1475 13.5743 74.2118 13.4473C74.2761 13.3202 74.3142 13.1816 74.3239 13.0395Z" fill="white"/>
<path d="M76.3766 12.4444C76.3766 11.0215 77.108 10.1201 78.2457 10.1201C78.5271 10.1072 78.8064 10.1746 79.051 10.3145C79.2955 10.4544 79.4951 10.661 79.6266 10.9101H79.693V8.43701H80.5817V14.6978H79.7301V13.9863H79.6598C79.5182 14.2338 79.3116 14.4378 79.0623 14.5763C78.8131 14.7148 78.5307 14.7825 78.2457 14.772C77.1002 14.772 76.3766 13.8706 76.3766 12.4444ZM77.2946 12.4444C77.2946 13.3994 77.7448 13.9741 78.4977 13.9741C79.2467 13.9741 79.7096 13.3911 79.7096 12.4483C79.7096 11.5098 79.2419 10.9185 78.4977 10.9185C77.7496 10.9185 77.2946 11.4971 77.2946 12.4444Z" fill="white"/>
<path d="M84.2584 12.4443C84.2301 12.1484 84.2639 11.8498 84.3578 11.5677C84.4516 11.2857 84.6034 11.0263 84.8033 10.8063C85.0033 10.5864 85.247 10.4106 85.5188 10.2903C85.7907 10.17 86.0847 10.1079 86.3819 10.1079C86.6792 10.1079 86.9732 10.17 87.245 10.2903C87.5169 10.4106 87.7606 10.5864 87.9605 10.8063C88.1605 11.0263 88.3122 11.2857 88.4061 11.5677C88.4999 11.8498 88.5338 12.1484 88.5055 12.4443C88.5343 12.7405 88.5009 13.0395 88.4073 13.322C88.3137 13.6045 88.162 13.8644 87.962 14.0848C87.762 14.3052 87.5181 14.4813 87.246 14.6019C86.9739 14.7224 86.6796 14.7847 86.3819 14.7847C86.0843 14.7847 85.79 14.7224 85.5179 14.6019C85.2457 14.4813 85.0018 14.3052 84.8018 14.0848C84.6018 13.8644 84.4502 13.6045 84.3566 13.322C84.263 13.0395 84.2296 12.7405 84.2584 12.4443ZM87.5914 12.4443C87.5914 11.4682 87.1529 10.8974 86.3834 10.8974C85.6109 10.8974 85.1764 11.4682 85.1764 12.4443C85.1764 13.4282 85.611 13.9946 86.3834 13.9946C87.1529 13.9946 87.5914 13.4243 87.5914 12.4443Z" fill="white"/>
<path d="M89.6979 10.1949H90.5533V10.9102H90.6198C90.7324 10.6533 90.9224 10.4379 91.1633 10.2941C91.4042 10.1503 91.6839 10.0852 91.9635 10.1079C92.1826 10.0915 92.4026 10.1245 92.6072 10.2046C92.8118 10.2847 92.9958 10.4098 93.1454 10.5707C93.2951 10.7315 93.4067 10.924 93.4719 11.1338C93.5371 11.3436 93.5543 11.5654 93.5221 11.7827V14.6977H92.6334V12.0059C92.6334 11.2823 92.319 10.9224 91.6618 10.9224C91.513 10.9155 91.3645 10.9408 91.2264 10.9966C91.0884 11.0525 90.964 11.1375 90.8619 11.2459C90.7598 11.3543 90.6823 11.4834 90.6348 11.6246C90.5872 11.7657 90.5708 11.9154 90.5865 12.0635V14.6978H89.6979V10.1949Z" fill="white"/>
<path d="M98.5436 9.07373V10.2153H99.5192V10.9639H98.5436V13.2793C98.5436 13.751 98.7379 13.9575 99.1803 13.9575C99.2936 13.9572 99.4067 13.9503 99.5192 13.937V14.6772C99.3596 14.7058 99.1979 14.721 99.0358 14.7226C98.0475 14.7226 97.6539 14.375 97.6539 13.5068V10.9638H96.9391V10.2153H97.6539V9.07373H98.5436Z" fill="white"/>
<path d="M100.733 8.43701H101.614V10.9185H101.684C101.802 10.6591 101.998 10.4425 102.243 10.2982C102.489 10.1539 102.773 10.0888 103.057 10.1118C103.275 10.1 103.493 10.1364 103.695 10.2184C103.898 10.3004 104.079 10.4261 104.227 10.5864C104.376 10.7468 104.486 10.9378 104.552 11.146C104.618 11.3541 104.637 11.5742 104.608 11.7905V14.6978H103.718V12.0098C103.718 11.2905 103.383 10.9263 102.756 10.9263C102.603 10.9137 102.449 10.9347 102.305 10.9878C102.162 11.0408 102.031 11.1247 101.923 11.2334C101.815 11.3421 101.732 11.4732 101.68 11.6173C101.628 11.7614 101.608 11.9152 101.622 12.0679V14.6977H100.733L100.733 8.43701Z" fill="white"/>
<path d="M109.79 13.482C109.669 13.8935 109.407 14.2495 109.051 14.4877C108.694 14.7258 108.265 14.831 107.838 14.7847C107.542 14.7926 107.247 14.7357 106.974 14.6182C106.702 14.5007 106.458 14.3253 106.26 14.1041C106.063 13.883 105.915 13.6214 105.828 13.3376C105.742 13.0538 105.718 12.7545 105.758 12.4605C105.719 12.1656 105.743 11.8657 105.83 11.581C105.916 11.2964 106.063 11.0336 106.26 10.8105C106.457 10.5874 106.699 10.4093 106.971 10.2881C107.242 10.1669 107.537 10.1054 107.835 10.108C109.087 10.108 109.843 10.964 109.843 12.378V12.6881H106.664V12.7379C106.65 12.9031 106.671 13.0695 106.725 13.2262C106.779 13.383 106.865 13.5267 106.978 13.6481C107.091 13.7696 107.228 13.8661 107.38 13.9315C107.533 13.9969 107.697 14.0297 107.863 14.0279C108.075 14.0534 108.291 14.0151 108.482 13.9179C108.672 13.8207 108.83 13.669 108.934 13.482L109.79 13.482ZM106.664 12.0308H108.938C108.949 11.8797 108.929 11.7279 108.878 11.5852C108.827 11.4425 108.747 11.312 108.642 11.2021C108.538 11.0923 108.412 11.0055 108.272 10.9473C108.132 10.8891 107.981 10.8609 107.83 10.8643C107.676 10.8624 107.523 10.8913 107.381 10.9492C107.239 11.0072 107.109 11.093 107.001 11.2017C106.892 11.3104 106.806 11.4398 106.748 11.5822C106.69 11.7246 106.662 11.8771 106.664 12.0308Z" fill="white"/>
</g>
<defs>
<clipPath id="clip0_1_436">
<rect width="130" height="40" fill="white"/>
</clipPath>
</defs>
</svg>
