<svg width="16" height="16" viewBox="0 0 16 16" fill="none" xmlns="http://www.w3.org/2000/svg">
    <g clip-path="url(#clip0_1221_3642)">
        <path
            d="M15.5 13.5C15.5 13.6326 15.4473 13.7598 15.3536 13.8536C15.2598 13.9473 15.1326 14 15 14H6C5.86739 14 5.74021 13.9473 5.64645 13.8536C5.55268 13.7598 5.5 13.6326 5.5 13.5C5.5 13.3674 5.55268 13.2402 5.64645 13.1465C5.74021 13.0527 5.86739 13 6 13H15C15.1326 13 15.2598 13.0527 15.3536 13.1465C15.4473 13.2402 15.5 13.3674 15.5 13.5ZM14 12C14.1326 12 14.2598 11.9473 14.3536 11.8536C14.4473 11.7598 14.5 11.6326 14.5 11.5V9.27C14.4987 8.72404 14.3193 8.19342 13.989 7.75869C13.6587 7.32395 13.1956 7.00886 12.67 6.86125L8.8675 5.79875L7.46125 2.44688C7.43371 2.38109 7.39241 2.32196 7.34012 2.27345C7.28784 2.22494 7.22579 2.18818 7.15812 2.16563L6.81625 2.05188C6.66597 2.00178 6.50594 1.9881 6.34934 2.01197C6.19275 2.03583 6.04406 2.09656 5.91552 2.18914C5.78699 2.28173 5.68229 2.40353 5.61005 2.5445C5.53781 2.68548 5.50009 2.8416 5.5 3V4.83688L3.63313 4.305L2.97 2.46938C2.94429 2.39833 2.90282 2.33403 2.84869 2.28131C2.79457 2.2286 2.7292 2.18883 2.6575 2.165L2.31562 2.05125C2.16533 2.00126 2.00532 1.98769 1.84875 2.01164C1.69219 2.0356 1.54355 2.0964 1.41509 2.18904C1.28662 2.28168 1.182 2.40352 1.10983 2.54451C1.03766 2.6855 1.00002 2.84162 1 3V6.4825C1.0012 7.02771 1.18006 7.55767 1.50949 7.9921C1.83892 8.42652 2.30096 8.74174 2.82562 8.89L13.865 11.9813C13.9089 11.9936 13.9544 11.9999 14 12Z"
            fill="#C9C9C9" />
    </g>
    <defs>
        <clipPath id="clip0_1221_3642">
            <rect width="16" height="16" fill="white" />
        </clipPath>
    </defs>
</svg>
    