<svg width="20" height="20" viewBox="0 0 20 20" fill="none" xmlns="http://www.w3.org/2000/svg">
    <g clip-path="url(#clip0_1221_3521)">
    <path d="M18.75 13.125H1.25C1.25 13.125 1.25 10.625 1.875 9.0625C2.5 7.5 2.5 6.5625 2.8125 5.625C3.125 4.6875 4.6875 0.9375 10 0.9375C15.3125 0.9375 16.875 4.6875 17.1875 5.625C17.5 6.5625 17.5 7.5 18.125 9.0625C18.75 10.625 18.75 13.125 18.75 13.125Z" fill="#828C52"/>
    <path d="M1.875 14.375C1.875 14.375 5.3125 16.25 10 16.25C14.6875 16.25 18.125 14.375 18.125 14.375L16.875 10.625L10 9.0625L3.125 10.625L1.875 14.375Z" fill="#60663C"/>
    <path d="M15.625 10.625H17.5V19.0625H15.625V10.625Z" fill="#967C3F"/>
    <path d="M15.625 17.8125H17.5V19.0625H15.625V17.8125Z" fill="#60663C"/>
    <path d="M4.375 19.0625H2.5V10.625H4.375V19.0625Z" fill="#967C3F"/>
    <path d="M4.375 19.0625H2.5V17.8125H4.375V19.0625Z" fill="#60663C"/>
    <path d="M18.744 13.756L18.125 14.375L16.6536 11.4321C16.5927 11.3104 16.4938 11.2119 16.3718 11.1515C15.6802 10.8086 13.1764 9.6875 9.99999 9.6875C6.82359 9.6875 4.3198 10.8086 3.6282 11.1515C3.50622 11.2119 3.40728 11.3104 3.3464 11.4321L1.87499 14.375L1.25601 13.756C1.16323 13.6633 1.10199 13.5437 1.08096 13.4142C1.05993 13.2847 1.08017 13.1519 1.13882 13.0346L2.33851 10.6352C2.4476 10.4156 2.61934 10.2333 2.83202 10.1113C5.34468 8.6782 9.10292 8.4375 9.99999 8.4375C10.8971 8.4375 14.6553 8.6782 17.168 10.1113C17.3805 10.2334 17.5522 10.4157 17.6612 10.6352L18.8609 13.0346C18.9196 13.1519 18.9399 13.2847 18.9189 13.4142C18.8979 13.5436 18.8367 13.6632 18.744 13.756Z" fill="#737D49"/>
    <path d="M18.4152 8.94645C18.0418 8.01285 17.8973 7.30691 17.7698 6.68391C17.6877 6.28379 17.6105 5.90582 17.4839 5.52617C17.1132 4.4581 16.4973 3.49178 15.6857 2.70473C14.2546 1.32473 12.3416 0.625 10 0.625C7.65839 0.625 5.74543 1.32473 4.31433 2.70473C3.50268 3.49178 2.88678 4.4581 2.51605 5.52617C2.38949 5.90582 2.31211 6.28398 2.23023 6.68391C2.10273 7.30691 1.9582 8.01305 1.58484 8.94645C1.09398 10.1736 0.975465 11.9368 0.946676 12.7204L0.859371 12.8948C0.771258 13.0708 0.740817 13.27 0.772372 13.4643C0.803926 13.6585 0.895872 13.8379 1.03515 13.9769L1.6541 14.5959C1.67531 14.6168 1.69942 14.6347 1.7257 14.6488L1.72543 14.6492C1.73324 14.6534 1.89367 14.7406 2.18757 14.8761V19.0625C2.18757 19.1454 2.2205 19.2249 2.2791 19.2835C2.33771 19.3421 2.41719 19.375 2.50007 19.375H4.37507C4.45795 19.375 4.53744 19.3421 4.59605 19.2835C4.65465 19.2249 4.68757 19.1454 4.68757 19.0625V15.7947C6.41336 16.2997 8.20186 16.5582 10 16.5625C11.7982 16.5582 13.5867 16.2997 15.3125 15.7947V19.0625C15.3125 19.1454 15.3454 19.2249 15.404 19.2835C15.4626 19.3421 15.5421 19.375 15.625 19.375H17.5C17.5829 19.375 17.6624 19.3421 17.721 19.2835C17.7796 19.2249 17.8125 19.1454 17.8125 19.0625V14.8761C18.1061 14.7409 18.2667 14.6537 18.2746 14.6493C18.3009 14.6351 18.3249 14.6172 18.3461 14.5961L18.9648 13.977C19.1041 13.838 19.1961 13.6586 19.2276 13.4644C19.2592 13.2702 19.2287 13.0709 19.1406 12.895L19.0425 12.6987L19.0526 12.6983C19.0189 11.8082 18.8915 10.1372 18.4152 8.94645ZM2.16515 9.17855C2.55929 8.1932 2.70976 7.45793 2.84254 6.80922C2.92398 6.41145 2.99425 6.06789 3.10894 5.72383C3.44703 4.75108 4.00846 3.87115 4.74816 3.15465C6.05859 1.89082 7.82578 1.25 10 1.25C12.1742 1.25 13.9414 1.89082 15.2518 3.15465C15.9915 3.87115 16.553 4.75108 16.8911 5.72383C17.0057 6.06789 17.076 6.41133 17.1575 6.80922C17.2903 7.45793 17.4407 8.1932 17.8348 9.17855C18.076 9.78145 18.2204 10.5424 18.3069 11.2277L17.9409 10.4955C17.8045 10.2205 17.5894 9.99227 17.3229 9.83984C14.8563 8.43309 11.2005 8.125 10 8.125C8.79949 8.125 5.14371 8.43309 2.67707 9.83984C2.41061 9.99226 2.19551 10.2205 2.05914 10.4955L1.69195 11.2299C1.77859 10.5406 1.92328 9.78328 2.16515 9.17855ZM2.8125 13.1987L3.62593 11.5719C3.6563 11.5109 3.70587 11.4616 3.76703 11.4315C3.84343 11.3936 3.94257 11.346 4.0625 11.2914V17.5H2.8125V13.1987ZM2.8125 18.75V18.125H4.0625V18.75H2.8125ZM10 15.9375C8.19992 15.9326 6.4102 15.6649 4.6875 15.1428V11.0273C5.82218 10.582 7.7373 10 10 10C12.2627 10 14.1778 10.582 15.3125 11.0273V15.1428C13.5898 15.6649 11.8001 15.9326 10 15.9375ZM17.1875 17.5H15.9375V11.2914C16.0574 11.3461 16.1566 11.3936 16.233 11.4315C16.2941 11.4616 16.3437 11.5109 16.3741 11.5719L17.1875 13.1987V17.5ZM17.1875 18.75H15.9375V18.125H17.1875V18.75ZM18.523 13.5352L18.2105 13.8477L16.9332 11.2926C16.8415 11.1103 16.6933 10.9627 16.5107 10.8718C15.8027 10.5205 13.2408 9.375 10 9.375C6.75921 9.375 4.19734 10.5205 3.48941 10.8716C3.30677 10.9625 3.15853 11.1101 3.06691 11.2924L1.78941 13.8477L1.47691 13.5352C1.43049 13.4888 1.39984 13.429 1.38933 13.3643C1.37881 13.2995 1.38895 13.2331 1.41832 13.1744L2.61816 10.775C2.69938 10.6106 2.82765 10.4741 2.98668 10.3828C5.32363 9.04996 8.92328 8.75 10 8.75C11.0767 8.75 14.6764 9.04996 17.0133 10.3828C17.1723 10.4741 17.3006 10.6106 17.3819 10.775L18.5815 13.1744C18.6109 13.233 18.6211 13.2995 18.6106 13.3642C18.6001 13.429 18.5694 13.4888 18.523 13.5352Z" fill="black"/>
    <path d="M4.375 7.8125C4.45788 7.8125 4.53737 7.77958 4.59597 7.72098C4.65458 7.66237 4.6875 7.58288 4.6875 7.5C4.6875 6.17614 5.2241 5.03801 6.28242 4.11719C6.76944 3.69317 7.3225 3.35161 7.91973 3.10602C7.95829 3.09197 7.9937 3.07046 8.02395 3.04272C8.0542 3.01498 8.07868 2.98155 8.09601 2.94435C8.11334 2.90715 8.12317 2.86689 8.12495 2.82589C8.12672 2.78489 8.1204 2.74394 8.10635 2.70538C8.0923 2.66682 8.07078 2.6314 8.04304 2.60115C8.01531 2.57091 7.98188 2.54642 7.94468 2.52909C7.90747 2.51176 7.86722 2.50193 7.82622 2.50015C7.78521 2.49838 7.74426 2.5047 7.7057 2.51875C7.04285 2.78613 6.42907 3.16188 5.88949 3.63063C4.69426 4.66293 4.0625 6.00094 4.0625 7.5C4.0625 7.58288 4.09542 7.66237 4.15403 7.72098C4.21263 7.77958 4.29212 7.8125 4.375 7.8125Z" fill="black"/>
    </g>
    <defs>
    <clipPath id="clip0_1221_3521">
    <rect width="20" height="20" fill="white"/>
    </clipPath>
    </defs>
    </svg>
    