<svg width="16" height="16" viewBox="0 0 16 16" fill="none" xmlns="http://www.w3.org/2000/svg">
    <g clip-path="url(#clip0_1221_3633)">
        <path
            d="M11 13.5C11 13.6326 10.9473 13.7598 10.8536 13.8536C10.7598 13.9473 10.6326 14 10.5 14H1.50001C1.3674 14 1.24022 13.9473 1.14645 13.8536C1.05269 13.7598 1.00001 13.6326 1.00001 13.5C1.00001 13.3674 1.05269 13.2402 1.14645 13.1464C1.24022 13.0527 1.3674 13 1.50001 13H10.5C10.6326 13 10.7598 13.0527 10.8536 13.1464C10.9473 13.2402 11 13.3674 11 13.5ZM15.3944 5.4225L14.2294 3.92937L14.2219 3.92C13.8451 3.45595 13.314 3.14299 12.7255 3.03833C12.137 2.93367 11.5305 3.0443 11.0169 3.35L7.79376 5.27375L4.42251 4.03375C4.30984 3.99174 4.1858 3.99174 4.07313 4.03375L3.62501 4.20437L3.60501 4.2125C3.4517 4.27831 3.31729 4.38142 3.21403 4.51246C3.11076 4.6435 3.04193 4.79829 3.01378 4.96273C2.98564 5.12718 2.99909 5.29605 3.0529 5.45397C3.10671 5.61188 3.19918 5.75383 3.32188 5.86687L4.68751 7.19125L3.42688 7.95375L1.66063 7.3575C1.53563 7.31538 1.39904 7.32436 1.28063 7.3825L1.09313 7.47437C0.943122 7.54141 0.811941 7.64437 0.711188 7.77416C0.610435 7.90395 0.543215 8.05657 0.515472 8.21851C0.487729 8.38046 0.500318 8.54675 0.552126 8.70267C0.603933 8.8586 0.693363 8.99936 0.812507 9.1125L3.06251 11.3169L3.07001 11.3244C3.53089 11.76 4.14083 12.003 4.77501 12.0037C5.22021 12.003 5.65722 11.884 6.04126 11.6587L15.2544 6.15875C15.3152 6.12242 15.3676 6.07359 15.4081 6.01549C15.4486 5.95739 15.4763 5.89135 15.4893 5.82174C15.5024 5.75213 15.5005 5.68055 15.4838 5.61172C15.4671 5.54289 15.436 5.47839 15.3925 5.4225H15.3944Z"
            fill="#787E86" />
    </g>
    <defs>
        <clipPath id="clip0_1221_3633">
            <rect width="16" height="16" fill="white" />
        </clipPath>
    </defs>
</svg>
    