<svg width="20" height="20" viewBox="0 0 20 20" fill="none" xmlns="http://www.w3.org/2000/svg">
    <g clip-path="url(#clip0_1221_3594)">
    <path d="M16.1664 14.2219L12.8662 13.2512H7.13379L3.83357 14.2219C3.03401 14.457 2.48491 15.1908 2.48491 16.0243V19.7069H17.5151V16.0243C17.5151 15.1909 16.966 14.4571 16.1664 14.2219Z" fill="#EDEBED"/>
    <path d="M11.5657 19.707H8.43437L7.80808 13.4443H12.1919L11.5657 19.707Z" fill="#A5CDFF"/>
    <path d="M7.9505 14.8688C8.5 15.3456 9.21539 15.6363 10 15.6363C10.7846 15.6363 11.5 15.3456 12.0495 14.8688L12.1919 13.4443H7.80808L7.9505 14.8688Z" fill="#8CB4EB"/>
    <path d="M10 14.6969C8.78945 14.6969 7.80808 13.7155 7.80808 12.505V10.3131H12.1919V12.505C12.1919 13.7155 11.2106 14.6969 10 14.6969Z" fill="#F9CDB6"/>
    <path d="M7.80808 11.951C8.46597 12.3024 9.21191 12.505 10 12.505C10.7881 12.505 11.534 12.3024 12.1919 11.951V10.3131H7.80808V11.951Z" fill="#F9B896"/>
    <path d="M14.5403 6.24239H14.0707V3.11111H5.92934V6.24239H5.45966C5.02732 6.24239 4.67685 6.59285 4.67685 7.02519C4.67685 7.4575 5.02732 7.808 5.45966 7.808H5.94516C6.10555 9.9094 7.85757 11.5656 10 11.5656C12.1425 11.5656 13.8945 9.9094 14.0549 7.808H14.5404C14.9727 7.808 15.3232 7.4575 15.3232 7.02519C15.3232 6.59289 14.9727 6.24239 14.5403 6.24239Z" fill="#F9CDB6"/>
    <path d="M5.92934 3.11111V6.24239H5.49122C5.1347 6.24239 4.80173 6.46832 4.70939 6.81266C4.56974 7.33339 4.96404 7.80804 5.4638 7.80804H5.9452C6.10559 9.90943 7.85761 11.5656 10.0001 11.5656C10.2143 11.5656 10.4231 11.5447 10.6283 11.5129C8.6773 11.2117 7.18191 9.5303 7.18191 7.49496V5.52712C7.18191 4.9611 7.68082 4.53712 8.24288 4.60407C8.53468 4.63884 8.84714 4.65802 9.18206 4.65802C10.1168 4.65802 11.1573 4.50966 12.2748 4.21712C12.8945 4.05486 13.4126 3.64646 13.7312 3.11115L5.92934 3.11111Z" fill="#F9B896"/>
    <path d="M7.45583 1.85862L7.49497 3.11116C7.49497 3.11116 6.55559 4.05054 6.55559 5.30308V5.6896C6.55559 6.00542 6.3204 6.27186 6.007 6.31101L5.30305 6.39901V3.73737C5.30305 2.69976 6.28161 1.80644 7.45583 1.85862Z" fill="#A06E50"/>
    <path d="M13.7515 15.0039L13.1313 14.3837L13.795 13.4987C13.9385 13.3073 13.8737 13.0327 13.6597 12.9257L12.1918 12.1918L9.99998 19.7069H11.8788L13.8688 15.7268C13.9276 15.6093 13.9479 15.4762 13.9268 15.3464C13.9058 15.2167 13.8444 15.0969 13.7515 15.0039Z" fill="#DBD9DC"/>
    <path d="M12.5441 0.919215L12.505 3.11113C12.505 3.11113 13.4444 4.0505 13.4444 5.30304V5.68957C13.4444 6.00539 13.6796 6.27183 13.993 6.31097L14.6969 6.39898V2.798C14.6969 1.76039 13.7184 0.867028 12.5441 0.919215Z" fill="#CD916E"/>
    <path d="M6.24848 15.0039L6.86871 14.3837L6.20497 13.4987C6.06145 13.3073 6.12626 13.0327 6.34024 12.9257L7.80812 12.1918L9.99998 19.7069H8.12121L6.13118 15.7268C6.0724 15.6093 6.05211 15.4762 6.07316 15.3464C6.09421 15.2167 6.15555 15.0969 6.24848 15.0039Z" fill="#DBD9DC"/>
    <path d="M10.6067 0.292969C7.99421 0.292969 7.49355 1.08714 5.48188 1.72788C5.34364 1.77191 5.28142 1.93202 5.35954 2.05425C5.79606 2.73706 7.42082 4.51685 12.0367 3.3083C12.5773 3.16678 12.9929 2.73096 13.1025 2.18307C13.2295 1.54831 12.8437 0.919606 12.2636 0.632186C11.803 0.403906 11.1988 0.292969 10.6067 0.292969Z" fill="#B67F5F"/>
    <path d="M4.05037 17.828H7.18162V19.7069H4.05037V17.828Z" fill="#A5CDFF"/>
    <path d="M8.12125 6.26254C8.04355 6.26254 7.96903 6.29341 7.91409 6.34835C7.85914 6.40329 7.82828 6.47781 7.82828 6.55551V6.86867C7.82828 7.03051 7.95945 7.16164 8.12125 7.16164C8.28304 7.16164 8.41421 7.03051 8.41421 6.86867V6.55551C8.41421 6.47781 8.38335 6.40329 8.32841 6.34835C8.27346 6.29341 8.19895 6.26254 8.12125 6.26254ZM11.8788 6.26254C11.8403 6.26254 11.8022 6.27011 11.7667 6.28483C11.7311 6.29955 11.6988 6.32113 11.6716 6.34834C11.6444 6.37554 11.6228 6.40784 11.6081 6.44339C11.5934 6.47894 11.5858 6.51704 11.5858 6.55551V6.86867C11.5858 7.03051 11.7169 7.16164 11.8788 7.16164C12.0406 7.16164 12.1718 7.03051 12.1718 6.86867V6.55551C12.1718 6.47781 12.1409 6.40329 12.0859 6.34835C12.031 6.29341 11.9565 6.26254 11.8788 6.26254ZM11.1452 8.95598C11.1725 8.92897 11.1943 8.89682 11.2093 8.86138C11.2243 8.82594 11.2321 8.7879 11.2324 8.74943C11.2326 8.71096 11.2253 8.67282 11.2108 8.63718C11.1963 8.60154 11.175 8.5691 11.148 8.54172C11.121 8.51432 11.0888 8.49251 11.0534 8.47754C11.0179 8.46257 10.9799 8.45473 10.9414 8.45447C10.9029 8.45421 10.8648 8.46153 10.8292 8.47602C10.7935 8.49051 10.7611 8.51188 10.7337 8.53891C10.6268 8.64438 10.3704 8.76758 10 8.76758C9.62964 8.76758 9.37335 8.64438 9.2664 8.53891C9.23902 8.51187 9.20659 8.4905 9.17094 8.47601C9.1353 8.46152 9.09715 8.45419 9.05868 8.45445C9.0202 8.4547 8.98216 8.46254 8.94671 8.47751C8.91127 8.49248 8.87912 8.51428 8.8521 8.54168C8.79754 8.59699 8.76717 8.67171 8.76769 8.7494C8.76821 8.8271 8.79957 8.90141 8.85488 8.95598C9.10718 9.20488 9.53527 9.35352 10 9.35352C10.4648 9.35352 10.8928 9.20488 11.1452 8.95598ZM8.43437 5.32317H7.80812C7.64632 5.32317 7.51515 5.4543 7.51515 5.61613C7.51515 5.77797 7.64632 5.9091 7.80812 5.9091H8.43437C8.59617 5.9091 8.72734 5.77797 8.72734 5.61613C8.72734 5.4543 8.59617 5.32317 8.43437 5.32317ZM11.5657 5.9091H12.1919C12.3537 5.9091 12.4849 5.77797 12.4849 5.61613C12.4849 5.4543 12.3537 5.32317 12.1919 5.32317H11.5657C11.4038 5.32317 11.2727 5.4543 11.2727 5.61613C11.2727 5.77797 11.4039 5.9091 11.5657 5.9091Z" fill="black"/>
    <path d="M16.2745 13.9546L14.1628 13.3054C14.1666 13.2409 14.1611 13.1762 14.1466 13.1133C14.1239 13.0168 14.0803 12.9265 14.0188 12.8488C13.9573 12.7711 13.8795 12.7079 13.7908 12.6637L12.4848 12.0108V11.0796C13.4619 10.4001 14.1496 9.33194 14.3215 8.10101H14.4957C15.0666 8.10101 15.5564 7.67675 15.6106 7.13508C15.641 6.83152 15.5417 6.52848 15.3382 6.3036C15.2405 6.19586 15.122 6.10905 14.9899 6.0484V2.79799C14.9899 1.6005 14.0157 0.626246 12.8181 0.626246L12.7686 0.626285C12.2411 0.237225 11.4663 0 10.6067 0C8.77663 0 7.93589 0.381248 6.96246 0.822691C6.44242 1.05851 5.90473 1.30234 5.14255 1.52523C5.10298 1.53679 5.0663 1.55658 5.03491 1.5833C5.00352 1.61001 4.97811 1.64305 4.96036 1.68025C4.94261 1.71746 4.93291 1.75799 4.93189 1.7992C4.93087 1.84041 4.93857 1.88137 4.95446 1.9194C4.96337 1.94073 5.09427 2.2446 5.43196 2.61373C5.28614 2.79323 5.01013 3.25225 5.01013 4.15486V6.06145C4.67302 6.22219 4.42697 6.54059 4.38943 6.91523C4.359 7.21879 4.45826 7.52187 4.66177 7.74683C4.76271 7.85824 4.88585 7.9473 5.02326 8.00829C5.16067 8.06928 5.30932 8.10085 5.45966 8.10097H5.67833C5.85012 9.33229 6.53781 10.4006 7.51511 11.08V12.0107L6.20914 12.6637C6.12047 12.7079 6.04262 12.7711 5.98113 12.8488C5.91964 12.9265 5.87602 13.0168 5.85337 13.1133C5.83881 13.1762 5.83332 13.2409 5.83708 13.3053L3.72541 13.9545C2.80819 14.2366 2.1919 15.0707 2.1919 16.0304V19.7069C2.1919 19.8688 2.32307 19.9999 2.48487 19.9999C2.64667 19.9999 2.77784 19.8688 2.77784 19.7069V16.0304C2.77784 15.3297 3.22783 14.7206 3.89763 14.5146L6.09415 13.8393L6.48184 14.3563L6.04137 14.7968C5.90479 14.9331 5.81463 15.109 5.78371 15.2995C5.7528 15.49 5.78269 15.6854 5.86915 15.8579L6.70781 17.5352H5.90919V17.2019C5.90919 17.0401 5.77801 16.9089 5.61622 16.9089C5.45442 16.9089 5.32325 17.0401 5.32325 17.2019V17.5352H4.05056C3.97286 17.5352 3.89835 17.566 3.8434 17.621C3.78846 17.6759 3.7576 17.7504 3.7576 17.8281V19.7069C3.7576 19.7846 3.78846 19.8591 3.8434 19.9141C3.89835 19.969 3.97286 19.9999 4.05056 19.9999H7.18187C7.25957 19.9999 7.33409 19.969 7.38903 19.9141C7.44397 19.8591 7.47484 19.7846 7.47484 19.7069V19.0692L7.85921 19.838C7.87642 19.8724 7.90023 19.9031 7.9293 19.9283C7.95836 19.9535 7.99211 19.9727 8.02861 19.9849C8.0651 19.997 8.10364 20.0019 8.14202 19.9992C8.18039 19.9964 8.21785 19.9862 8.25226 19.9689C8.28667 19.9517 8.31736 19.9279 8.34257 19.8989C8.36778 19.8698 8.38702 19.836 8.39918 19.7995C8.41135 19.763 8.4162 19.7245 8.41348 19.6861C8.41075 19.6477 8.40048 19.6103 8.38327 19.5759L6.39324 15.5958C6.3619 15.5332 6.35107 15.4624 6.36228 15.3933C6.3735 15.3242 6.40618 15.2605 6.45571 15.211L7.0759 14.5908C7.12576 14.5409 7.15597 14.4748 7.16097 14.4044C7.16597 14.3341 7.14543 14.2643 7.10312 14.2079L6.43938 13.3229C6.43136 13.3124 6.42579 13.3002 6.42308 13.2872C6.42037 13.2742 6.42059 13.2608 6.42371 13.2479C6.42667 13.235 6.43248 13.2228 6.44071 13.2124C6.44894 13.202 6.45939 13.1936 6.47129 13.1877L7.62519 12.6108L8.4398 15.4037C8.46258 15.4771 8.51328 15.5385 8.58096 15.5749C8.64863 15.6113 8.72788 15.6196 8.80164 15.5981C8.87539 15.5766 8.93775 15.527 8.97528 15.4599C9.01281 15.3929 9.02251 15.3138 9.00229 15.2397L8.87389 14.7994C9.23602 14.9253 9.61667 14.9897 10.0001 14.9898C10.3834 14.9898 10.764 14.9255 11.1261 14.7996L10 18.6606L9.36776 16.4928C9.35717 16.4557 9.33935 16.421 9.31531 16.3908C9.29127 16.3605 9.26149 16.3354 9.22768 16.3167C9.19387 16.298 9.1567 16.2862 9.11831 16.2819C9.07993 16.2777 9.04108 16.2811 9.004 16.2919C8.96692 16.3027 8.93234 16.3207 8.90226 16.3449C8.87218 16.3692 8.84718 16.3991 8.82871 16.433C8.81024 16.4669 8.79866 16.5042 8.79464 16.5426C8.79061 16.581 8.79422 16.6198 8.80526 16.6569L9.71877 19.7889C9.73652 19.8497 9.77353 19.9032 9.82424 19.9412C9.87495 19.9792 9.93663 19.9998 10 19.9998C10.0634 19.9998 10.1251 19.9792 10.1758 19.9412C10.2265 19.9032 10.2635 19.8497 10.2813 19.7889L12.3749 12.6108L13.5288 13.1877C13.5406 13.1936 13.5511 13.202 13.5593 13.2124C13.5676 13.2228 13.5734 13.2349 13.5764 13.2479C13.5795 13.2607 13.5797 13.2742 13.577 13.2872C13.5743 13.3001 13.5687 13.3124 13.5607 13.3229L12.897 14.2079C12.8547 14.2643 12.8341 14.3341 12.8391 14.4044C12.8441 14.4748 12.8743 14.541 12.9241 14.5909L13.5444 15.2111C13.5939 15.2605 13.6266 15.3243 13.6378 15.3933C13.649 15.4624 13.6382 15.5332 13.6068 15.5958L11.6167 19.5759C11.5944 19.6206 11.5838 19.6702 11.586 19.7201C11.5883 19.77 11.6032 19.8184 11.6294 19.8609C11.6557 19.9034 11.6923 19.9385 11.7359 19.9628C11.7795 19.9872 11.8286 20 11.8786 20C11.986 20 12.0895 19.9406 12.1408 19.838L14.1309 15.8579C14.2173 15.6854 14.2472 15.49 14.2163 15.2995C14.1854 15.1091 14.0953 14.9332 13.9587 14.7968L13.5182 14.3563L13.9058 13.8394L16.1024 14.5147C16.7721 14.7206 17.2221 15.3298 17.2221 16.0305V19.7069C17.2221 19.8688 17.3533 19.9999 17.5151 19.9999C17.6769 19.9999 17.8081 19.8688 17.8081 19.7069V16.0304C17.808 15.0708 17.1918 14.2366 16.2745 13.9546ZM6.88887 19.4139H4.34349V18.1211H5.32321V18.1413C5.32321 18.3031 5.45438 18.4342 5.61618 18.4342C5.77797 18.4342 5.90915 18.3031 5.90915 18.1413V18.1211H6.88887V19.4139ZM7.20445 1.35632C8.15363 0.925893 8.90331 0.585934 10.6067 0.585934C11.6875 0.585934 12.6534 1.03828 12.8533 1.63815C12.878 1.71167 12.9309 1.77239 13.0003 1.80698C13.0698 1.84158 13.1501 1.84723 13.2237 1.8227C13.2972 1.79816 13.3581 1.74545 13.3929 1.67612C13.4277 1.60679 13.4335 1.52649 13.4092 1.45284C13.3922 1.40213 13.3722 1.35245 13.3495 1.30405C13.9633 1.52304 14.4039 2.10991 14.4039 2.79799V5.94946H14.0707C13.8869 5.94946 13.7374 5.79997 13.7374 5.61618V5.30302C13.7374 3.94478 12.754 2.94584 12.7122 2.90397C12.6742 2.86609 12.6266 2.83933 12.5745 2.82659C12.5225 2.81386 12.4679 2.81564 12.4168 2.83174C10.7904 3.34533 8.49737 3.77818 6.80918 2.92401C6.20844 2.62002 5.85372 2.23374 5.66716 1.97581C6.28907 1.77144 6.77117 1.5528 7.20445 1.35632ZM11.899 12.15L11.3394 14.0684C10.9274 14.2888 10.4673 14.4041 10.0001 14.4039C9.53159 14.4039 9.07053 14.2883 8.66073 14.0687L8.10109 12.15V11.4232C8.6755 11.702 9.31979 11.8586 10 11.8586C10.6802 11.8586 11.3245 11.7019 11.899 11.4229V12.15ZM10 11.2726C7.91699 11.2726 6.22235 9.57795 6.22235 7.49492C6.22235 7.33308 6.09118 7.20195 5.92938 7.20195C5.76758 7.20195 5.63641 7.33308 5.63641 7.49492V7.51507H5.4597C5.39122 7.515 5.32352 7.50061 5.26093 7.47282C5.19835 7.44503 5.14227 7.40446 5.0963 7.35371C5.00232 7.24984 4.95833 7.11488 4.97247 6.97367C4.99712 6.72789 5.23079 6.53535 5.50446 6.53535H5.92938C6.43625 6.53535 6.84859 6.12297 6.84859 5.61614V4.51036C6.84859 4.34853 6.71742 4.2174 6.55563 4.2174C6.39383 4.2174 6.26266 4.34853 6.26266 4.51036V5.61614C6.26266 5.79993 6.11313 5.94942 5.92938 5.94942H5.5961V4.15486C5.5961 3.47318 5.7793 3.1342 5.86391 3.01401C6.0429 3.15518 6.25282 3.29502 6.49852 3.42307C7.16246 3.76912 7.95269 3.96076 8.84722 3.99263C9.89569 4.03033 11.094 3.84642 12.4113 3.44682C12.6438 3.72838 13.1515 4.44193 13.1515 5.30298V5.61614C13.1515 6.12301 13.5639 6.53535 14.0707 6.53535H14.5404C14.6089 6.53542 14.6766 6.54982 14.7392 6.57761C14.8018 6.6054 14.8578 6.64597 14.9038 6.69672C14.9978 6.80059 15.0418 6.93551 15.0276 7.07672C15.003 7.32254 14.7694 7.51507 14.4957 7.51507H14.3636V7.49796C14.3636 7.42029 14.3327 7.34579 14.2778 7.29085C14.2229 7.23591 14.1484 7.20503 14.0707 7.205H14.0706C13.9929 7.205 13.9184 7.23583 13.8635 7.29072C13.8086 7.34561 13.7777 7.42007 13.7776 7.49773C13.776 9.5792 12.0814 11.2726 10 11.2726Z" fill="black"/>
    <path d="M15.9495 17.6917H15.4596V17.2019C15.4596 17.0401 15.3285 16.9089 15.1666 16.9089C15.0048 16.9089 14.8737 17.0401 14.8737 17.2019V17.6917H14.3838C14.222 17.6917 14.0908 17.8229 14.0908 17.9847C14.0908 18.1465 14.222 18.2777 14.3838 18.2777H14.8737V18.7675C14.8737 18.9293 15.0048 19.0605 15.1666 19.0605C15.3285 19.0605 15.4596 18.9293 15.4596 18.7675V18.2777H15.9495C16.1113 18.2777 16.2424 18.1465 16.2424 17.9847C16.2424 17.8229 16.1113 17.6917 15.9495 17.6917Z" fill="black"/>
    </g>
    <defs>
    <clipPath id="clip0_1221_3594">
    <rect width="20" height="20" fill="white"/>
    </clipPath>
    </defs>
    </svg>
    