<svg width="14" height="14" viewBox="0 0 14 14" fill="none" xmlns="http://www.w3.org/2000/svg">
<path d="M7.16418 13.1588C7.12791 13.2355 7.07023 13.3003 6.99791 13.3458C6.92558 13.3912 6.84161 13.4154 6.75585 13.4154H4.84367C4.78443 13.4154 4.72575 13.404 4.671 13.3817C4.61624 13.3594 4.56649 13.3266 4.52458 13.2853C4.51351 13.2756 4.503 13.2652 4.4931 13.2543C4.4508 13.2035 4.42046 13.144 4.40427 13.0802C4.38808 13.0165 4.38645 12.9499 4.39949 12.8854L5.27789 8.55676L3.58482 8.55519L2.6124 9.51411C2.52795 9.59731 2.41348 9.64407 2.2941 9.64413C2.2941 9.64413 1.17628 9.64649 1.02888 9.64413C0.965147 9.64558 0.901842 9.63352 0.843238 9.60878C0.733473 9.5632 0.646467 9.47662 0.601232 9.36798C0.555997 9.25933 0.55621 9.13744 0.601826 9.02895L1.48422 6.99916L0.603818 4.97369C0.574453 4.90612 0.562545 4.83242 0.569161 4.75919C0.575777 4.68597 0.60071 4.6155 0.641726 4.55411C0.682742 4.49272 0.73856 4.44233 0.80418 4.40744C0.869801 4.37254 0.943173 4.35425 1.01772 4.35419H2.29251C2.352 4.35422 2.41089 4.36587 2.4658 4.38845C2.5207 4.41104 2.57052 4.44412 2.6124 4.48579L3.58442 5.44431H5.27909L4.40148 1.11564C4.38835 1.05112 4.38991 0.984531 4.40605 0.920679C4.42219 0.856826 4.45251 0.797305 4.49482 0.746414C4.53713 0.695523 4.59037 0.654531 4.6507 0.626399C4.71103 0.598267 4.77694 0.583697 4.84367 0.58374L6.75585 0.58374C6.8416 0.58376 6.92558 0.607906 6.99791 0.653345C7.07023 0.698783 7.12791 0.763627 7.16418 0.840263L9.34286 5.44392L11.855 5.44392C12.2734 5.44392 12.6746 5.60782 12.9705 5.89956C13.117 6.04401 13.2332 6.2155 13.3124 6.40424C13.3917 6.59298 13.4325 6.79527 13.4325 6.99956C13.4325 7.20384 13.3917 7.40613 13.3124 7.59487C13.2332 7.78361 13.117 7.9551 12.9705 8.09956C12.824 8.24401 12.6501 8.3586 12.4587 8.43677C12.2673 8.51495 12.0621 8.55519 11.855 8.55519H9.34286L7.16418 13.1588Z" fill="#545A61"/>
</svg>
