<svg width="33" height="32" viewBox="0 0 33 32" fill="none" xmlns="http://www.w3.org/2000/svg">
<rect x="0.5" width="32" height="32" rx="3.2" fill="#001B94"/>
<path d="M21.7903 13.8449C22.2228 13.8449 22.5739 13.4942 22.5739 13.0614C22.5739 12.6286 22.2228 12.2776 21.7903 12.2776C21.3575 12.2776 21.0065 12.6286 21.0065 13.0614C21.0065 13.4942 21.3575 13.8449 21.7903 13.8449Z" fill="white"/>
<path d="M19.439 11.4939C19.8718 11.4939 20.2228 11.1429 20.2228 10.7101C20.2228 10.2776 19.8718 9.92656 19.439 9.92656C19.0063 9.92656 18.6555 10.2776 18.6555 10.7101C18.6555 11.1429 19.0063 11.4939 19.439 11.4939Z" fill="white"/>
<path d="M21.7903 11.4939C22.2228 11.4939 22.5739 11.1429 22.5739 10.7101C22.5739 10.2776 22.2228 9.92656 21.7903 9.92656C21.3575 9.92656 21.0065 10.2776 21.0065 10.7101C21.0065 11.1429 21.3575 11.4939 21.7903 11.4939Z" fill="white"/>
<path d="M17.0883 11.4939C17.5208 11.4939 17.8718 11.1429 17.8718 10.7101C17.8718 10.2776 17.5208 9.92656 17.0883 9.92656C16.6555 9.92656 16.3045 10.2776 16.3045 10.7101C16.3045 11.1429 16.6555 11.4939 17.0883 11.4939Z" fill="white"/>
<path d="M23.9117 9.30538C24.2177 8.99905 24.2177 8.50297 23.9117 8.19692C23.6056 7.89086 23.1095 7.89086 22.8032 8.19692C22.4974 8.50297 22.4974 8.99905 22.8032 9.30538C23.1095 9.61117 23.6056 9.61117 23.9117 9.30538Z" fill="white"/>
<path d="M25.8708 7.73803C26.1769 7.4317 26.1769 6.93563 25.8708 6.62957C25.5648 6.32351 25.0687 6.32351 24.7624 6.62957C24.4566 6.93563 24.4566 7.4317 24.7624 7.73803C25.0687 8.04382 25.5648 8.04382 25.8708 7.73803Z" fill="white"/>
<path d="M14.3452 11.4939C14.7779 11.4939 15.129 11.1429 15.129 10.7101C15.129 10.2776 14.7779 9.92656 14.3452 9.92656C13.9124 9.92656 13.5616 10.2776 13.5616 10.7101C13.5616 11.1429 13.9124 11.4939 14.3452 11.4939Z" fill="white"/>
<path d="M11.9944 11.4939C12.4272 11.4939 12.7779 11.1429 12.7779 10.7101C12.7779 10.2776 12.4272 9.92656 11.9944 9.92656C11.5616 9.92656 11.2106 10.2776 11.2106 10.7101C11.2106 11.1429 11.5616 11.4939 11.9944 11.4939Z" fill="white"/>
<path d="M22.5739 15.4121C22.5739 14.9796 22.2228 14.6286 21.7903 14.6286C21.3575 14.6286 21.0065 14.9796 21.0065 15.4121C21.0065 15.8449 21.3575 16.1959 21.7903 16.1959C22.2228 16.1959 22.5739 15.8449 22.5739 15.4121Z" fill="white"/>
<path d="M12.386 23.249C12.8187 23.249 13.1698 22.898 13.1698 22.4652C13.1698 22.0324 12.8187 21.6817 12.386 21.6817C11.9535 21.6817 11.6024 22.0324 11.6024 22.4652C11.6024 22.898 11.9535 23.249 12.386 23.249Z" fill="white"/>
<path d="M10.0352 20.898C10.468 20.898 10.8188 20.5469 10.8188 20.1144C10.8188 19.6817 10.468 19.3306 10.0352 19.3306C9.60245 19.3306 9.25141 19.6817 9.25141 20.1144C9.25141 20.5469 9.60245 20.898 10.0352 20.898Z" fill="white"/>
<path d="M12.386 20.898C12.8187 20.898 13.1698 20.5469 13.1698 20.1144C13.1698 19.6817 12.8187 19.3306 12.386 19.3306C11.9535 19.3306 11.6024 19.6817 11.6024 20.1144C11.6024 20.5469 11.9535 20.898 12.386 20.898Z" fill="white"/>
<path d="M7.68393 20.898C8.1167 20.898 8.46774 20.5469 8.46774 20.1144C8.46774 19.6817 8.1167 19.3306 7.68393 19.3306C7.25143 19.3306 6.90039 19.6817 6.90039 20.1144C6.90039 20.5469 7.25143 20.898 7.68393 20.898Z" fill="white"/>
<path d="M13.1698 24.8165C13.1698 24.3837 12.8187 24.0327 12.386 24.0327C11.9535 24.0327 11.6024 24.3837 11.6024 24.8165C11.6024 25.249 11.9535 25.6 12.386 25.6C12.8187 25.6 13.1698 25.249 13.1698 24.8165Z" fill="white"/>
<path d="M22.5739 17.7634C22.5739 17.3307 22.2228 16.9796 21.7903 16.9796C21.3575 16.9796 21.0065 17.3307 21.0065 17.7634C21.0065 18.1962 21.3575 18.547 21.7903 18.547C22.2228 18.547 22.5739 18.1962 22.5739 17.7634Z" fill="white"/>
<path d="M22.5739 20.506C22.5739 20.0732 22.2228 19.7225 21.7903 19.7225C21.3575 19.7225 21.0065 20.0732 21.0065 20.506C21.0065 20.9388 21.3575 21.2898 21.7903 21.2898C22.2228 21.2898 22.5739 20.9388 22.5739 20.506Z" fill="white"/>
<path d="M15.9125 17.3715C16.3453 17.3715 16.6963 17.0207 16.6963 16.5879C16.6963 16.1551 16.3453 15.8041 15.9125 15.8041C15.4797 15.8041 15.129 16.1551 15.129 16.5879C15.129 17.0207 15.4797 17.3715 15.9125 17.3715Z" fill="white"/>
<path d="M18.0341 15.1828C18.3402 14.8767 18.3402 14.3807 18.0341 14.0744C17.7279 13.7684 17.2318 13.7684 16.9258 14.0744C16.6198 14.3807 16.6198 14.8767 16.9258 15.1828C17.2318 15.4888 17.7279 15.4888 18.0341 15.1828Z" fill="white"/>
<path d="M19.9933 13.6154C20.2993 13.3094 20.2993 12.8134 19.9933 12.5071C19.687 12.2011 19.191 12.2011 18.885 12.5071C18.579 12.8134 18.579 13.3094 18.885 13.6154C19.191 13.9214 19.687 13.9214 19.9933 13.6154Z" fill="white"/>
<path d="M14.8994 18.7095C15.2055 18.4034 15.2055 17.9073 14.8994 17.601C14.5931 17.2949 14.097 17.2949 13.791 17.601C13.4852 17.9073 13.4852 18.4034 13.791 18.7095C14.097 19.0152 14.5931 19.0152 14.8994 18.7095Z" fill="white"/>
</svg>
