<svg width="20" height="20" viewBox="0 0 20 20" fill="none" xmlns="http://www.w3.org/2000/svg">
    <path
        d="M13.75 16.875C13.75 17.0408 13.6842 17.1997 13.5669 17.3169C13.4497 17.4342 13.2908 17.5 13.125 17.5H1.87501C1.70925 17.5 1.55027 17.4342 1.43306 17.3169C1.31585 17.1997 1.25001 17.0408 1.25001 16.875C1.25001 16.7092 1.31585 16.5503 1.43306 16.4331C1.55027 16.3158 1.70925 16.25 1.87501 16.25H13.125C13.2908 16.25 13.4497 16.3158 13.5669 16.4331C13.6842 16.5503 13.75 16.7092 13.75 16.875ZM19.243 6.77813L17.7867 4.91172L17.7774 4.9C17.3064 4.31994 16.6425 3.92875 15.9069 3.79792C15.1713 3.66709 14.4131 3.80538 13.7711 4.1875L9.74219 6.59219L5.52813 5.04219C5.38729 4.98967 5.23225 4.98967 5.09141 5.04219L4.53126 5.25547L4.50626 5.26563C4.31462 5.34789 4.14661 5.47678 4.01753 5.64058C3.88845 5.80437 3.8024 5.99786 3.76723 6.20342C3.73205 6.40897 3.74886 6.62006 3.81612 6.81746C3.88339 7.01486 3.99897 7.19229 4.15235 7.33359L5.85938 8.98906L4.2836 9.94219L2.07579 9.19688C1.91953 9.14423 1.7488 9.15546 1.60079 9.22813L1.36641 9.34297C1.1789 9.42676 1.01492 9.55547 0.888981 9.7177C0.76304 9.87994 0.679015 10.0707 0.644336 10.2731C0.609658 10.4756 0.625394 10.6834 0.690153 10.8783C0.754913 11.0733 0.8667 11.2492 1.01563 11.3906L3.82813 14.1461L3.83751 14.1555C4.41361 14.7 5.17603 15.0038 5.96876 15.0047C6.52526 15.0038 7.07152 14.8549 7.55157 14.5734L19.068 7.69844C19.144 7.65303 19.2094 7.59199 19.2601 7.51936C19.3107 7.44674 19.3453 7.36419 19.3616 7.27718C19.378 7.19017 19.3756 7.10069 19.3548 7.01465C19.3339 6.92862 19.295 6.84799 19.2406 6.77813H19.243Z"
        fill="white" />
</svg>
    