<svg width="30" height="30" viewBox="0 0 30 30" fill="none" xmlns="http://www.w3.org/2000/svg">
<path fill-rule="evenodd" clip-rule="evenodd" d="M18.8184 6.03821H28.4353C28.8499 6.03949 29.2471 6.20475 29.5403 6.49792C29.8335 6.79109 29.9987 7.18835 30 7.60295V22.3971C29.9985 22.8114 29.8333 23.2084 29.5403 23.5014C29.2473 23.7944 28.8503 23.9597 28.4359 23.9611H18.8177L18.8184 6.03821ZM21.2856 9.70196H27.5335V10.2376H21.2856V9.70196ZM21.2856 13.0557H25.8137V13.5913H21.2856V13.0557ZM21.2856 16.4087H24.5673V16.9443H21.2849L21.2856 16.4087ZM21.2856 19.7624H26.1418V20.2981H21.2849L21.2856 19.7624ZM1.56474 6.03821H18.2828V23.9618H1.56405C1.14957 23.9603 0.752488 23.795 0.459468 23.5018C0.166448 23.2087 0.0012767 22.8115 0 22.3971L0 7.60295C0.00146006 7.18847 0.166807 6.79139 0.459957 6.49837C0.753107 6.20535 1.15026 6.03948 1.56474 6.03821ZM10.7919 13.8951C6.68389 14.1187 2.99938 14.4239 1.18895 15.0004C3.00007 15.5761 6.68389 15.8813 10.7919 16.1049C13.5477 16.2115 14.6619 16.2225 15.2142 16.2246C17.7194 16.2357 17.7194 13.7643 15.2142 13.7754C14.6619 13.7782 13.5477 13.7893 10.7919 13.8951ZM2.62567 15.8883C2.76961 17.3028 2.99453 18.1831 3.31703 18.1707H4.3219C4.61049 18.1817 4.82641 17.4136 4.97243 16.2191C4.18694 16.1353 3.40447 16.0252 2.62636 15.889L2.62567 15.8883ZM3.31703 11.8293C2.99453 11.8169 2.76961 12.6972 2.62636 14.1111L2.78345 14.0834C3.50979 13.96 4.23981 13.8594 4.97243 13.7816C4.82641 12.5865 4.61049 11.8183 4.3219 11.83L3.31703 11.8293ZM9.15523 16.5568V21.7624H10.1573L11.9546 16.6897C11.0211 16.6542 10.0879 16.6099 9.15523 16.5568ZM9.15523 8.23826V13.4425C10.0879 13.3896 11.0211 13.3455 11.9546 13.3103L10.1573 8.23757L9.15523 8.23826Z" fill="white"/>
</svg>
