<svg width="16" height="16" viewBox="0 0 16 16" fill="none" xmlns="http://www.w3.org/2000/svg">
<g clip-path="url(#clip0_1_424)">
<path d="M8 16C12.4183 16 16 12.4183 16 8C16 3.58172 12.4183 0 8 0C3.58172 0 0 3.58172 0 8C0 12.4183 3.58172 16 8 16Z" fill="#F7931E"/>
<path d="M16 8C16 12.4267 12.4267 16 8 16C3.57333 16 0 12.4267 0 8H16Z" fill="#009245"/>
<path d="M16 7.99992C16 7.09325 15.84 6.18659 15.52 5.33325H0.48C-0.16 7.03992 -0.16 8.95992 0.48 10.6666H15.5733C15.84 9.81325 16 8.90659 16 7.99992Z" fill="#F0F0F0"/>
<path d="M8 5.8667C6.82667 5.8667 5.86667 6.8267 5.86667 8.00003C5.86667 9.17337 6.82667 10.1334 8 10.1334C9.17334 10.1334 10.1333 9.17337 10.1333 8.00003C10.1333 6.8267 9.17334 5.8667 8 5.8667ZM8 9.60003C7.09334 9.60003 6.4 8.9067 6.4 8.00003C6.4 7.09337 7.09334 6.40003 8 6.40003C8.90667 6.40003 9.6 7.09337 9.6 8.00003C9.6 8.9067 8.90667 9.60003 8 9.60003Z" fill="black"/>
<path d="M8 9.06668C8.5891 9.06668 9.06667 8.58912 9.06667 8.00002C9.06667 7.41091 8.5891 6.93335 8 6.93335C7.4109 6.93335 6.93333 7.41091 6.93333 8.00002C6.93333 8.58912 7.4109 9.06668 8 9.06668Z" fill="black"/>
</g>
<defs>
<clipPath id="clip0_1_424">
<rect width="16" height="16" fill="white"/>
</clipPath>
</defs>
</svg>
