<svg width="140" height="46" viewBox="0 0 140 46" fill="none" xmlns="http://www.w3.org/2000/svg">
<rect width="45.9182" height="46" rx="22.9591" fill="#DA260D"/>
<path d="M25.168 17.8088C25.2787 13.0789 24.8598 9.23025 23.1969 9.23025C21.3733 9.23025 20.8589 12.6035 20.9966 17.6645L9.23032 24.5895L10.0298 25.957L13.757 25.03C13.8119 25.3877 13.8959 25.7598 14.0231 26.1381H14.5987C14.5987 26.1381 14.8559 25.5907 14.9438 24.7347L18.4648 23.86C18.5142 24.2837 18.6046 24.7309 18.7587 25.1864H19.3356C19.3356 25.1864 19.6338 24.5394 19.6921 23.5546L21.322 23.1496C21.5715 26.1283 21.928 29.3857 22.3153 32.7215L19.1942 35.9142L19.4324 36.7696L22.7215 35.1981H23.4526C23.4526 35.1981 23.4576 35.1728 23.4589 35.1575L26.8334 36.7693L27.0716 35.9139L23.8271 32.5956C24.1379 30.3185 24.5734 26.8241 24.8661 23.2165L26.6526 23.6602C26.7265 24.5873 27.0065 25.1864 27.0065 25.1864H27.5834C27.7236 24.7671 27.8127 24.3557 27.8635 23.9622L31.4136 24.8445C31.5104 25.6339 31.7422 26.1384 31.7422 26.1384H32.3191C32.4349 25.7969 32.5164 25.4585 32.5712 25.1318L35.8883 25.9573L36.6878 24.5898L25.168 17.8088Z" fill="white"/>
<path d="M15.3478 27.7572H14.7135V34.6289H15.3478V27.7572Z" fill="white"/>
<path d="M18.2022 26.5943H17.5679V32.4089H18.2022V26.5943Z" fill="white"/>
<path d="M31.2053 27.7572H30.571V34.6289H31.2053V27.7572Z" fill="white"/>
<path d="M28.3509 26.5943H27.7166V32.4089H28.3509V26.5943Z" fill="white"/>
<path d="M128.83 16.0702L132.611 16.0701V22.8367C132.611 23.4172 132.661 23.9023 132.761 24.2921C132.86 24.6818 133.009 24.9886 133.209 25.2125C133.408 25.4364 133.652 25.594 133.942 25.6852C134.233 25.7764 134.577 25.822 134.975 25.822C135.456 25.822 135.887 25.7971 136.268 25.7474L136.219 25.2996V16.0701H140V28.3595C139.386 28.5751 138.653 28.7658 137.798 28.9317C136.944 29.0976 136.069 29.1805 135.174 29.1805C134.328 29.1805 133.519 29.1141 132.748 28.9815C131.977 28.8488 131.301 28.5668 130.721 28.1356C130.14 27.7044 129.68 27.0784 129.34 26.2574C129 25.4365 128.83 24.3294 128.83 22.9363V16.0702Z" fill="#DA260D"/>
<path d="M55.4606 19.2712H53.9182V16.1367H55.4606V12.6041H59.1922V16.1367H62.2769L60.5355 19.2712H59.0678L59.1922 20.0673V23.973C59.1922 24.4042 59.2212 24.7525 59.2792 25.0179C59.3373 25.2832 59.4285 25.4905 59.5529 25.6398C59.6773 25.789 59.8348 25.8927 60.0255 25.9507C60.2163 26.0088 60.436 26.0378 60.6848 26.0378C60.8672 26.0378 61.0911 26.0171 61.3565 25.9756C61.6218 25.9342 61.9038 25.8886 62.2023 25.8388L62.4013 27.5056L62.5506 28.9982C62.0696 29.0977 61.6301 29.1724 61.2321 29.2221C60.8341 29.2719 60.4277 29.2967 60.0131 29.2967C58.4707 29.2967 57.3264 28.9402 56.58 28.227C55.8337 27.5139 55.4606 26.3363 55.4606 24.6944V19.2712ZM68.9689 16.6093C69.1679 16.4767 69.4457 16.3481 69.8023 16.2237C70.1589 16.0994 70.561 16.0372 71.0088 16.0372C71.3903 16.0372 71.7012 16.0538 71.9417 16.0869C72.1822 16.1201 72.3025 16.1284 72.3025 16.1118V19.4204C71.921 19.3873 71.5478 19.379 71.183 19.3956C70.8679 19.4288 70.5403 19.4827 70.2003 19.5573C69.8603 19.6319 69.5493 19.7688 69.2674 19.9678C68.9357 20.1999 68.6994 20.5151 68.5584 20.9131C68.4174 21.3111 68.3469 21.8584 68.3469 22.555V29.1724H64.6154V19.2961H62.6003L64.1924 16.1367H68.3469V17.1069C68.4299 17.0405 68.5045 16.9742 68.5708 16.9078C68.6372 16.8581 68.7035 16.8042 68.7699 16.7461C68.8362 16.6881 68.9026 16.6425 68.9689 16.6093ZM78.4223 16.1615V29.1475H74.6658V20.1668L74.7902 19.2712H72.6508L74.3424 16.1615H78.4223ZM78.3228 15.0918H74.5912V11.7085H78.3228V15.0918ZM82.129 19.2215L79.6414 19.2215L81.2833 16.1616H85.2139L85.5373 17.6045C85.9187 17.1567 86.3873 16.7877 86.9429 16.4974C87.4985 16.2072 88.1494 16.0621 88.8957 16.0621C89.6255 16.0621 90.3054 16.1906 90.9357 16.4477C91.5659 16.7047 92.1132 17.0986 92.5776 17.6293C93.042 18.16 93.4068 18.8275 93.6722 19.6319C93.9376 20.4363 94.0702 21.3941 94.0702 22.5052C94.0702 24.6612 93.4649 26.3321 92.2542 27.518C91.0435 28.7039 89.3353 29.2967 87.1295 29.2967C86.7148 29.2967 86.3002 29.2719 85.8856 29.2221V34.9688H82.1291L82.129 19.2215ZM85.8855 25.9134C86.3001 25.9963 86.723 26.0378 87.1542 26.0378C88.0829 26.0378 88.821 25.7642 89.3683 25.2169C89.9156 24.6696 90.1892 23.7989 90.1892 22.6048C90.1892 21.6926 89.9985 20.938 89.6171 20.341C89.2356 19.7439 88.6551 19.4454 87.8756 19.4454C87.1625 19.4454 86.6525 19.6983 86.3457 20.2041C86.0389 20.71 85.8855 21.3277 85.8855 22.0575V25.9134Z" fill="#DA260D"/>
<path d="M96.7576 19.1163L94.8171 19.1164V15.9818H96.7576V15.5589C96.7907 14.9453 96.9151 14.3565 97.1307 13.7926C97.3463 13.2287 97.6697 12.7561 98.1009 12.3746C98.9965 11.479 100.224 11.0312 101.783 11.0312C102.231 11.0312 102.649 11.0603 103.039 11.1183C103.429 11.1764 103.906 11.2966 104.47 11.479L104.221 11.9019L103.673 12.8224L103.126 13.7428L102.877 14.1658H102.255C101.725 14.1658 101.302 14.2735 100.987 14.4892C100.672 14.7048 100.514 15.0613 100.514 15.5589V15.9818H103.748L102.056 19.1163H100.415L100.514 19.8129V28.9926H96.7576V19.1163ZM110.39 15.8574C111.253 15.8574 112.057 15.9776 112.803 16.2181C113.55 16.4586 114.192 16.8442 114.731 17.3749C115.27 17.9056 115.693 18.5939 116 19.4397C116.307 20.2856 116.46 21.3055 116.46 22.4996C116.46 23.6937 116.307 24.7137 116 25.5595C115.693 26.4054 115.27 27.0936 114.731 27.6244C114.192 28.1551 113.55 28.5407 112.803 28.7811C112.057 29.0216 111.253 29.1419 110.39 29.1419C109.511 29.1419 108.703 29.0216 107.965 28.7811C107.227 28.5407 106.588 28.1551 106.049 27.6244C105.51 27.0936 105.087 26.4054 104.78 25.5595C104.474 24.7137 104.32 23.6937 104.32 22.4996C104.32 21.3221 104.474 20.3145 104.78 19.477C105.087 18.6396 105.51 17.9512 106.049 17.4122C106.588 16.8733 107.227 16.4793 107.965 16.2306C108.703 15.9818 109.511 15.8574 110.39 15.8574ZM110.39 25.8829C111.137 25.8829 111.721 25.6341 112.144 25.1366C112.567 24.6391 112.779 23.76 112.779 22.4996C112.779 21.2392 112.567 20.3561 112.144 19.8502C111.721 19.3443 111.137 19.0914 110.39 19.0914C109.661 19.0914 109.076 19.3526 108.636 19.8751C108.197 20.3975 107.977 21.2723 107.977 22.4996C107.977 23.76 108.193 24.6391 108.624 25.1366C109.055 25.6341 109.644 25.8829 110.39 25.8829ZM123.55 16.4544C123.749 16.3218 124.027 16.1932 124.384 16.0688C124.74 15.9445 125.142 15.8823 125.59 15.8823C125.972 15.8823 126.283 15.8989 126.523 15.932C126.764 15.9652 126.884 15.9735 126.884 15.9569V19.2655C126.502 19.2324 126.129 19.2241 125.764 19.2407C125.449 19.2739 125.122 19.3278 124.782 19.4024C124.442 19.477 124.131 19.6138 123.849 19.8129C123.517 20.045 123.281 20.3602 123.14 20.7582C122.999 21.1562 122.928 21.7035 122.928 22.4001V29.0175H119.197V19.1412H117.182L118.774 15.9818H122.928V16.952C123.011 16.8856 123.086 16.8193 123.152 16.7529C123.219 16.7032 123.285 16.6493 123.351 16.5912C123.418 16.5332 123.484 16.4876 123.55 16.4544Z" fill="#230400"/>
</svg>
