<svg width="20" height="20" viewBox="0 0 20 20" fill="none" xmlns="http://www.w3.org/2000/svg">
    <g clip-path="url(#clip0_1221_3559)">
    <g clip-path="url(#clip1_1221_3559)">
    <path d="M14.3391 13.5645L13.4429 13.9521L13.0857 12.7976H6.91423L6.55704 14.1326L5.66083 13.5645C4.66849 14.4358 3.44841 16.2165 3.44841 19.707H5.66087L6.55708 19.0392L7.45329 19.707H12.5467L13.4429 18.959L14.3392 19.707H16.5516C16.5515 16.2165 15.3315 14.4358 14.3391 13.5645Z" fill="#EDECFF"/>
    <path d="M9.99998 15.124C11.6733 15.124 13.228 14.6073 14.5138 13.7256C14.4568 13.6705 14.3986 13.6168 14.3391 13.5645L13.4429 13.9521L13.0857 12.7976H6.91423L6.55705 14.1326L5.66084 13.5645C5.60134 13.6168 5.54309 13.6705 5.48615 13.7256C6.77193 14.6073 8.32666 15.124 9.99998 15.124Z" fill="#D2D2FF"/>
    <path d="M6.91424 12.7976C6.91424 12.7976 6.34103 12.9674 5.66084 13.5645V19.707H7.45322V12.7976H6.91424Z" fill="#E8A881"/>
    <path d="M7.45329 17.2927C7.3555 17.2767 7.25659 17.2686 7.15751 17.2685H5.95668C5.85598 17.2685 5.75727 17.277 5.6609 17.2927V18.9603C5.75723 18.976 5.85598 18.9845 5.95668 18.9845H7.15751C7.25821 18.9845 7.35696 18.976 7.45329 18.9603V17.2927Z" fill="#E5876E"/>
    <path d="M7.1575 16.4873H5.95668C5.5907 16.4873 5.29398 16.784 5.29398 17.15C5.29398 17.5159 5.59066 17.8127 5.95668 17.8127H7.1575C7.52348 17.8127 7.82019 17.516 7.82019 17.15C7.82019 16.784 7.52351 16.4873 7.1575 16.4873Z" fill="#FCBF72"/>
    <path d="M9.99999 16.3918C10.2951 16.3918 10.5344 16.1525 10.5344 15.8574C10.5344 15.5622 10.2951 15.3229 9.99999 15.3229C9.70484 15.3229 9.46558 15.5622 9.46558 15.8574C9.46558 16.1525 9.70484 16.3918 9.99999 16.3918Z" fill="#D2D2FF"/>
    <path d="M9.99999 18.6183C10.2951 18.6183 10.5344 18.3791 10.5344 18.0839C10.5344 17.7888 10.2951 17.5495 9.99999 17.5495C9.70484 17.5495 9.46558 17.7888 9.46558 18.0839C9.46558 18.3791 9.70484 18.6183 9.99999 18.6183Z" fill="#D2D2FF"/>
    <path d="M13.0857 12.7976C13.0857 12.7976 13.6589 12.9674 14.3391 13.5645V19.707H12.5467V12.7976H13.0857Z" fill="#E8A881"/>
    <path d="M14.3391 17.2927C14.2413 17.2767 14.1424 17.2686 14.0433 17.2685H12.8424C12.7417 17.2685 12.643 17.277 12.5467 17.2927V18.9603C12.643 18.976 12.7417 18.9845 12.8424 18.9845H14.0433C14.144 18.9845 14.2427 18.976 14.3391 18.9603V17.2927Z" fill="#E5876E"/>
    <path d="M12.8425 16.4873H14.0433C14.4093 16.4873 14.706 16.784 14.706 17.15C14.706 17.5159 14.4093 17.8127 14.0433 17.8127H12.8425C12.4765 17.8127 12.1798 17.516 12.1798 17.15C12.1798 16.784 12.4765 16.4873 12.8425 16.4873Z" fill="#FCBF72"/>
    <path d="M4.39599 1.67155C2.88403 1.67155 1.65841 2.89722 1.65841 4.40913C1.65841 5.79671 2.78325 6.92155 4.17083 6.92155H6.90841V4.18398C6.90845 2.7964 5.78357 1.67155 4.39599 1.67155ZM15.604 1.67155C17.1159 1.67155 18.3415 2.89722 18.3415 4.40913C18.3415 5.79671 17.2167 6.92155 15.8291 6.92155H13.0915V4.18398C13.0915 2.7964 14.2164 1.67155 15.604 1.67155Z" fill="#EDECFF"/>
    <path d="M16.9475 8.97403C17.9701 8.97403 18.799 8.14509 18.799 7.12254C18.799 6.1 17.9701 5.27106 16.9475 5.27106C15.925 5.27106 15.096 6.1 15.096 7.12254C15.096 8.14509 15.925 8.97403 16.9475 8.97403Z" fill="#F9B896"/>
    <path d="M12.5467 12.7976V14.7084C13.178 14.4957 13.7802 14.2047 14.3391 13.8422V13.5646C13.6589 12.9675 13.0857 12.7977 13.0857 12.7977H12.5467V12.7976ZM5.6609 13.5645V13.8422C6.21985 14.2046 6.822 14.4956 7.45329 14.7083V12.7976H6.91426C6.91426 12.7976 6.3411 12.9674 5.6609 13.5645Z" fill="#E5876E"/>
    <path d="M9.99998 13.9521C13.7718 13.9521 16.8296 10.8944 16.8296 7.12254C16.8296 3.35067 13.7718 0.292969 9.99998 0.292969C6.22811 0.292969 3.17041 3.35067 3.17041 7.12254C3.17041 10.8944 6.22811 13.9521 9.99998 13.9521Z" fill="#F9CDB6"/>
    <path d="M9.8794 13.9506C7.54225 12.4529 5.99335 9.83274 5.99335 6.85082C5.99335 4.23915 7.18163 1.90508 9.04694 0.359497C6.33183 0.738677 4.12831 2.71399 3.41487 5.30676C3.29552 5.28303 3.17413 5.27107 3.05245 5.27106C2.02991 5.27106 1.20097 6.10001 1.20097 7.12254C1.20097 8.14508 2.02991 8.97403 3.05245 8.97403C3.17651 8.97403 3.29761 8.96161 3.41483 8.93832C4.19987 11.7915 6.7894 13.897 9.8794 13.9506Z" fill="#F9B896"/>
    <path d="M7.61221 3.99969H6.64011C6.2378 3.99969 5.91163 4.32583 5.91163 4.72817C5.91163 5.13048 6.23776 5.45665 6.64011 5.45665H7.61221C8.01452 5.45665 8.34069 5.13052 8.34069 4.72817C8.34065 4.32587 8.01452 3.99969 7.61221 3.99969ZM12.3878 3.99969H13.3599C13.7622 3.99969 14.0883 4.32583 14.0883 4.72817C14.0883 5.13048 13.7622 5.45665 13.3599 5.45665H12.3878C11.9855 5.45665 11.6593 5.13052 11.6593 4.72817C11.6593 4.32587 11.9855 3.99969 12.3878 3.99969Z" fill="#EDECFF"/>
    <path d="M6.79333 8.82267C7.41874 8.82267 7.92575 8.41892 7.92575 7.92087C7.92575 7.42282 7.41874 7.01907 6.79333 7.01907C6.16791 7.01907 5.6609 7.42282 5.6609 7.92087C5.6609 8.41892 6.16791 8.82267 6.79333 8.82267Z" fill="#FFA0AB"/>
    <path d="M13.2067 8.82267C13.8321 8.82267 14.3391 8.41892 14.3391 7.92087C14.3391 7.42282 13.8321 7.01907 13.2067 7.01907C12.5813 7.01907 12.0743 7.42282 12.0743 7.92087C12.0743 8.41892 12.5813 8.82267 13.2067 8.82267Z" fill="#FFA0AB"/>
    <path d="M13.4634 9.83514C12.7692 9.05674 12.3658 6.88206 9.99998 8.06913C7.6342 6.88202 7.23076 9.0567 6.53654 9.83514C6.34283 10.0524 6.42709 10.3847 6.69947 10.5042C7.4326 10.8259 8.68084 11.0239 9.99998 9.67874C11.3191 11.0239 12.5673 10.8259 13.3005 10.5042C13.5728 10.3847 13.6571 10.0524 13.4634 9.83514Z" fill="#EDECFF"/>
    <path d="M7.99229 6.93954C7.99229 6.64184 7.75096 6.40055 7.45327 6.40055C7.15557 6.40055 6.91428 6.64188 6.91428 6.93954M12.0077 6.93954C12.0077 6.64184 12.2491 6.40055 12.5467 6.40055C12.8444 6.40055 13.0857 6.64188 13.0857 6.93954M7.61221 3.99969H6.64011C6.2378 3.99969 5.91163 4.32583 5.91163 4.72817C5.91163 5.13048 6.23776 5.45665 6.64011 5.45665H7.61221C8.01452 5.45665 8.34069 5.13052 8.34069 4.72817C8.34069 4.32583 8.01452 3.99969 7.61221 3.99969ZM12.3878 3.99969H13.3599C13.7622 3.99969 14.0883 4.32583 14.0883 4.72817C14.0883 5.13048 13.7622 5.45665 13.3599 5.45665H12.3878C11.9855 5.45665 11.6593 5.13052 11.6593 4.72817C11.6593 4.32583 11.9855 3.99969 12.3878 3.99969ZM13.4634 9.83516C12.7692 9.05677 12.3658 6.88208 9.99999 8.06915C7.63421 6.88204 7.23077 9.05673 6.53655 9.83516C6.34284 10.0524 6.4271 10.3847 6.69948 10.5042C7.43261 10.8259 8.68085 11.0239 9.99999 9.67876C11.3191 11.0239 12.5673 10.8259 13.3005 10.5042C13.5729 10.3847 13.6571 10.0524 13.4634 9.83516Z" stroke="black" stroke-width="0.585938" stroke-miterlimit="10" stroke-linecap="round" stroke-linejoin="round"/>
    <path d="M9.99999 16.3917C10.2951 16.3917 10.5344 16.1524 10.5344 15.8573C10.5344 15.5621 10.2951 15.3229 9.99999 15.3229C9.70484 15.3229 9.46558 15.5621 9.46558 15.8573C9.46558 16.1524 9.70484 16.3917 9.99999 16.3917Z" stroke="black" stroke-width="0.585938" stroke-miterlimit="10" stroke-linecap="round" stroke-linejoin="round"/>
    <path d="M9.99999 18.6183C10.2951 18.6183 10.5344 18.379 10.5344 18.0839C10.5344 17.7887 10.2951 17.5494 9.99999 17.5494C9.70484 17.5494 9.46558 17.7887 9.46558 18.0839C9.46558 18.379 9.70484 18.6183 9.99999 18.6183Z" stroke="black" stroke-width="0.585938" stroke-miterlimit="10" stroke-linecap="round" stroke-linejoin="round"/>
    <path d="M3.05243 5.27106C3.17653 5.27106 3.29767 5.28348 3.41493 5.30676C3.77915 3.98301 4.53189 2.82035 5.54259 1.94867C5.18797 1.7662 4.79484 1.67118 4.39603 1.67156C2.88407 1.67156 1.65841 2.89723 1.65841 4.40918C1.65841 4.84867 1.77153 5.2616 1.96982 5.62098C2.28474 5.39306 2.66368 5.27058 3.05243 5.27106ZM16.5851 5.30676C16.7044 5.28302 16.8258 5.27106 16.9476 5.27106C17.3363 5.27058 17.7152 5.39306 18.0301 5.62098C18.2349 5.24995 18.3421 4.83295 18.3416 4.40914C18.3416 2.89719 17.1159 1.67153 15.604 1.67153C15.2051 1.67115 14.812 1.76616 14.4574 1.94863C15.4681 2.82035 16.2208 3.98301 16.5851 5.30676Z" stroke="black" stroke-width="0.585938" stroke-miterlimit="10" stroke-linecap="round" stroke-linejoin="round"/>
    <path d="M3.17043 7.12254C3.17009 6.50905 3.25232 5.89831 3.41492 5.30676C3.29555 5.28302 3.17413 5.27106 3.05242 5.27106C2.02988 5.27106 1.20094 6.1 1.20094 7.12254C1.20094 8.14508 2.02988 8.97399 3.05242 8.97399C3.17652 8.97399 3.29765 8.96157 3.41492 8.93828C3.25232 8.34675 3.17008 7.73602 3.17043 7.12254ZM16.9476 5.27106C16.8235 5.27106 16.7023 5.28348 16.5851 5.30676C16.7477 5.89831 16.8299 6.50905 16.8296 7.12254C16.8296 7.75133 16.7441 8.36008 16.5851 8.93828C16.7023 8.96157 16.8235 8.97399 16.9476 8.97399C17.9701 8.97399 18.799 8.14504 18.799 7.12254C18.799 6.1 17.9701 5.27106 16.9476 5.27106Z" stroke="black" stroke-width="0.585938" stroke-miterlimit="10" stroke-linecap="round" stroke-linejoin="round"/>
    <path d="M12.0746 0.614219C11.4203 0.40582 10.7234 0.292969 9.99998 0.292969C6.22811 0.292969 3.17041 3.35066 3.17041 7.12254C3.17041 10.8944 6.22811 13.9521 9.99998 13.9521C13.7719 13.9521 16.8296 10.8944 16.8296 7.12254C16.8296 4.48898 15.3387 2.20395 13.1551 1.06437M7.15748 17.8126H5.95666C5.85021 17.8126 5.74998 17.7869 5.66088 17.7423V19.707H7.45326V17.7423C7.36149 17.7885 7.2602 17.8126 7.15748 17.8126Z" stroke="black" stroke-width="0.585938" stroke-miterlimit="10" stroke-linecap="round" stroke-linejoin="round"/>
    <path d="M5.66087 13.5646C5.97677 13.2872 6.2695 13.1022 6.49251 12.9834C6.79969 13.1677 7.12093 13.3274 7.45325 13.461V16.5576C7.36415 16.513 7.26392 16.4873 7.15747 16.4873H5.95665C5.85393 16.4873 5.75263 16.5114 5.66087 16.5576V13.5646ZM5.66087 13.5646V16.5575C5.44353 16.6663 5.29396 16.8904 5.29396 17.15C5.29396 17.4095 5.44353 17.6336 5.66087 17.7423V19.707H3.44841C3.44841 18.392 3.62161 17.3198 3.89056 16.4473M5.66087 13.5646C5.21497 13.956 4.72314 14.5312 4.31661 15.3626" stroke="black" stroke-width="0.585938" stroke-miterlimit="10" stroke-linecap="round" stroke-linejoin="round"/>
    <path d="M7.1575 16.4873H5.95668C5.5907 16.4873 5.29398 16.7839 5.29398 17.15C5.29398 17.5159 5.59066 17.8127 5.95668 17.8127H7.1575C7.52348 17.8127 7.82019 17.516 7.82019 17.15C7.82019 16.7839 7.52351 16.4873 7.1575 16.4873ZM12.8425 16.4873H14.0433C14.1498 16.4873 14.25 16.513 14.3391 16.5575V13.5645C14.0232 13.2872 13.7305 13.1022 13.5075 12.9834C13.2003 13.1676 12.879 13.3273 12.5467 13.461V16.5575C12.6385 16.5114 12.7398 16.4873 12.8425 16.4873ZM14.0433 17.8126H12.8425C12.7361 17.8126 12.6358 17.7869 12.5467 17.7423V19.707H14.3391V17.7423C14.2473 17.7885 14.146 17.8126 14.0433 17.8126Z" stroke="black" stroke-width="0.585938" stroke-miterlimit="10" stroke-linecap="round" stroke-linejoin="round"/>
    <path d="M12.1798 17.15C12.1798 16.8904 12.3294 16.6663 12.5467 16.5575V13.461C11.7597 13.7775 10.9003 13.9521 10 13.9521C9.09973 13.9521 8.24035 13.7775 7.45328 13.461V16.5575C7.67059 16.6663 7.8202 16.8903 7.8202 17.1499C7.8202 17.4095 7.67059 17.6336 7.45328 17.7423V19.707H12.5467V17.7423C12.3294 17.6336 12.1798 17.4095 12.1798 17.15ZM14.3391 13.5645V16.5575C14.5564 16.6663 14.706 16.8904 14.706 17.15C14.706 17.4095 14.5564 17.6336 14.3391 17.7423V19.707H16.5516C16.5516 16.2165 15.3315 14.4357 14.3391 13.5645Z" stroke="black" stroke-width="0.585938" stroke-miterlimit="10" stroke-linecap="round" stroke-linejoin="round"/>
    <path d="M12.8425 16.4873H14.0433C14.4093 16.4873 14.706 16.784 14.706 17.15C14.706 17.5159 14.4093 17.8127 14.0433 17.8127H12.8425C12.4765 17.8127 12.1798 17.516 12.1798 17.15C12.1798 16.784 12.4765 16.4873 12.8425 16.4873Z" stroke="black" stroke-width="0.585938" stroke-miterlimit="10" stroke-linecap="round" stroke-linejoin="round"/>
    </g>
    </g>
    <defs>
    <clipPath id="clip0_1221_3559">
    <rect width="20" height="20" fill="white"/>
    </clipPath>
    <clipPath id="clip1_1221_3559">
    <rect width="20" height="20" fill="white"/>
    </clipPath>
    </defs>
    </svg>
    