<svg width="20" height="20" viewBox="0 0 20 20" fill="none" xmlns="http://www.w3.org/2000/svg">
    <g clip-path="url(#clip0_1221_3534)">
    <g clip-path="url(#clip1_1221_3534)">
    <path d="M14.8919 19.707H5.14937C5.25249 18.6184 5.38999 17.6406 5.47437 17.0824C5.52359 16.7617 5.71226 16.4777 5.99077 16.3109C6.52124 15.993 7.0814 15.741 7.60952 15.5434C8.5857 15.177 9.45327 14.9961 9.82632 14.9289C9.95523 14.9055 10.0861 14.9055 10.2146 14.9289C10.5876 14.9961 11.4552 15.177 12.4314 15.5434C12.9595 15.741 13.5197 15.993 14.0501 16.3109C14.3287 16.4777 14.5173 16.7617 14.5666 17.0824C14.6509 17.6406 14.7884 18.6184 14.8919 19.707Z" fill="#5766CB"/>
    <path d="M8.44109 17.8526C8.44109 17.8526 9.09925 19.0447 10.0204 19.7002C10.9416 19.0448 11.5998 17.8526 11.5998 17.8526V15.8541H8.44109V17.8526Z" fill="#ECF4FF"/>
    <path d="M10.8942 18.8645C10.6493 19.1589 10.3518 19.4643 10.0203 19.7004C9.68878 19.4643 9.39128 19.1589 9.1464 18.8645L10.0203 18.0241L10.8942 18.8645ZM8.44109 16.5057L10.0205 18.0241L11.5999 16.5057" fill="#D57080"/>
    <path d="M7.45093 19.3215C7.45093 19.3215 7.40991 19.468 7.35249 19.707H5.14937C5.25249 18.6184 5.38999 17.6406 5.47437 17.0824C5.52359 16.7617 5.71226 16.4777 5.99077 16.3109C7.55132 17.1137 7.45093 19.3215 7.45093 19.3215ZM14.8919 19.707H12.6888C12.6314 19.468 12.5904 19.3215 12.5904 19.3215C12.5904 19.3215 12.49 17.1137 14.0501 16.3109C14.3287 16.4777 14.5173 16.7617 14.5666 17.0824C14.6509 17.6406 14.7884 18.6184 14.8919 19.707Z" fill="#ECF4FF"/>
    <path d="M13.0462 19.707H12.6888C12.6314 19.468 12.5904 19.3215 12.5904 19.3215C12.5904 19.3215 12.7974 19.4289 13.0462 19.707ZM6.86109 15.8543C6.64585 16.0348 6.49976 16.3387 6.46148 16.6816C6.39195 17.3168 6.27593 18.4555 6.19351 19.707H5.14937C5.25249 18.6184 5.38999 17.6406 5.47437 17.0824C5.52359 16.7617 5.71226 16.4777 5.99077 16.3109C6.27554 16.1402 6.5689 15.9887 6.86109 15.8543ZM12.4314 15.5434L11.5999 17.8526L10.0205 16.3342L8.44109 17.8526L7.6096 15.5434C8.58562 15.1769 9.45335 14.9961 9.82644 14.9289C9.95507 14.9055 10.0859 14.9055 10.2146 14.9289C10.5876 14.9961 11.4554 15.1769 12.4314 15.5434Z" fill="#DDEAFB"/>
    <path d="M15.918 8.9575L7.2607 9.08039L3.72879 9.13062C3.72879 9.13062 1.95496 6.53707 2.49254 4.00227C3.03016 1.46805 6.29449 3.00395 6.29449 3.00395C6.29449 3.00395 8.07012 0.292969 10.4124 0.292969C13.8929 0.292969 15.358 3.61844 16.9326 2.42824C16.9326 2.42824 18.9977 6.33187 15.918 8.9575Z" fill="#9D6B6B"/>
    <path d="M7.2607 9.08039L3.72879 9.13063C3.72879 9.13063 1.95496 6.53707 2.49254 4.00227C3.03016 1.46805 6.29449 3.00395 6.29449 3.00395C6.29449 3.00395 5.17512 4.87524 7.20383 6.36879C7.8582 6.85012 7.7323 7.89141 7.2607 9.08039Z" fill="#8B5E5E"/>
    <path d="M11.2196 13.1326V15.1352C11.2196 15.7973 10.6827 16.3341 10.0206 16.3341C9.35816 16.3341 8.82129 15.7973 8.82129 15.1352V13.1326H11.2196Z" fill="#FFDDCE"/>
    <path d="M10.4122 16.2688C10.2862 16.3121 10.1539 16.3342 10.0207 16.3341C9.35823 16.3341 8.82136 15.7972 8.82136 15.1351V13.1326H9.60433V15.1351C9.60433 15.6604 9.94202 16.1068 10.4122 16.2688ZM5.01112 11.4652C4.14655 11.4652 3.44569 10.7643 3.44569 9.89973C3.44569 9.78075 3.45898 9.66485 3.48413 9.55348C3.68722 8.65411 5.01112 8.80161 5.01112 9.72364H15.0298C15.0298 8.80161 16.3537 8.65411 16.5568 9.55348C16.582 9.66489 16.5953 9.78075 16.5953 9.89973C16.5953 10.7643 15.8944 11.4652 15.0298 11.4652" fill="#FFCBBE"/>
    <path d="M8.82124 13.1326H11.2196V14.9775H8.82124V13.1326Z" fill="#FFCBBE"/>
    <path d="M15.0298 7.88472V10.6914C15.0298 12.708 13.3952 14.3425 11.3787 14.3425H8.66222C6.64562 14.3425 5.01105 12.7079 5.01105 10.6914V7.88472C6.3048 7.88472 7.35398 6.83617 7.35398 5.54242C7.35398 5.54242 7.37273 5.56 7.40968 5.59207C7.80191 5.93051 10.275 7.88472 15.0298 7.88472Z" fill="#FFDDCE"/>
    <path d="M11.0608 14.3426H8.66222C6.64562 14.3426 5.01105 12.708 5.01105 10.6914V7.88477C6.3048 7.88477 7.35398 6.83622 7.35398 5.54247C7.35398 5.54247 7.37273 5.56004 7.40968 5.59211V10.6914C7.4096 12.708 9.04421 14.3426 11.0608 14.3426Z" fill="#FFCBBE"/>
    <path d="M13.3251 11.096C13.778 11.096 14.1451 10.8727 14.1451 10.5974C14.1451 10.322 13.778 10.0988 13.3251 10.0988C12.8722 10.0988 12.5051 10.322 12.5051 10.5974C12.5051 10.8727 12.8722 11.096 13.3251 11.096Z" fill="#EAAFA5"/>
    <path d="M6.71593 11.096C7.16881 11.096 7.53593 10.8727 7.53593 10.5974C7.53593 10.322 7.16881 10.0988 6.71593 10.0988C6.26306 10.0988 5.89594 10.322 5.89594 10.5974C5.89594 10.8727 6.26306 11.096 6.71593 11.096Z" fill="#EAAFA5"/>
    <path d="M16.449 8.86465C17.5464 7.7609 18.0373 6.32328 17.8715 4.67856C17.7359 3.33281 17.2133 2.33266 17.1911 2.29074C17.1713 2.25323 17.1435 2.22047 17.1098 2.19474C17.076 2.16901 17.0371 2.15093 16.9956 2.14173C16.9542 2.13254 16.9113 2.13247 16.8698 2.14151C16.8283 2.15055 16.7893 2.16849 16.7555 2.1941C16.173 2.63453 15.6119 2.28984 14.5888 1.58996C13.5533 0.881562 12.2645 0 10.4123 0C8.3014 0 6.66972 1.98844 6.19062 2.64184C5.67812 2.43945 4.41199 2.02504 3.41952 2.40535C3.26843 2.46324 3.19288 2.63266 3.25081 2.78375C3.30874 2.93484 3.4782 3.01039 3.62925 2.9525C4.64292 2.56398 6.15468 3.26203 6.16964 3.26902C6.23351 3.29902 6.30605 3.30497 6.37395 3.28579C6.44185 3.26661 6.50055 3.22358 6.53929 3.16461C6.5562 3.13883 8.25847 0.585938 10.4123 0.585938C12.0833 0.585938 13.2891 1.41078 14.258 2.07352C14.771 2.42438 15.214 2.72738 15.6593 2.87902C16.0749 3.02047 16.4519 3.01059 16.8028 2.84742C16.9573 3.21449 17.2049 3.90734 17.2885 4.7373C17.4487 6.32617 16.9531 7.6443 15.8161 8.6573C15.7722 8.6572 15.7283 8.65956 15.6846 8.66438C15.5537 8.67898 15.4323 8.71434 15.3227 8.76684V7.88477C15.3227 7.80707 15.2919 7.73255 15.2369 7.67761C15.182 7.62266 15.1075 7.5918 15.0298 7.5918C12.4101 7.5918 10.5174 6.97668 9.39093 6.46066C8.17066 5.90168 7.56097 5.33512 7.55538 5.32988C7.51382 5.29046 7.46161 5.26409 7.40521 5.25404C7.34881 5.24398 7.2907 5.25068 7.23807 5.2733C7.18544 5.29593 7.1406 5.33349 7.1091 5.38134C7.07759 5.42918 7.06081 5.48521 7.06081 5.5425C7.06081 6.6725 6.1412 7.59184 5.01085 7.59184C4.93315 7.59184 4.85863 7.6227 4.80369 7.67764C4.74875 7.73259 4.71788 7.8071 4.71788 7.8848V8.7668C4.60843 8.71437 4.48699 8.67902 4.35617 8.66445C4.16628 8.64328 3.98597 8.66863 3.82577 8.73273C3.4262 8.05754 2.36351 6.02012 2.77882 4.06309C2.81519 3.89133 2.86679 3.73594 2.9323 3.60117C2.96497 3.53145 2.96888 3.45168 2.9432 3.37909C2.91751 3.30651 2.86429 3.24695 2.79504 3.2133C2.72578 3.17965 2.64607 3.17461 2.57313 3.19927C2.50019 3.22393 2.43989 3.27631 2.40527 3.34508C2.31902 3.52266 2.25179 3.72344 2.20566 3.9416C1.72734 6.19566 2.95722 8.44203 3.3639 9.1043C3.28773 9.21586 3.23074 9.34516 3.19827 9.48898C3.16791 9.62381 3.15261 9.7616 3.15265 9.89981C3.15265 10.8746 3.90722 11.6759 4.86288 11.7518C5.31566 13.3721 6.77949 14.5745 8.52831 14.6331V14.9341C8.18175 15.0328 7.8389 15.1446 7.50679 15.269C6.89273 15.4988 6.33199 15.7648 5.84019 16.0596C5.48656 16.2714 5.24765 16.628 5.1846 17.0387C5.0907 17.66 4.95777 18.6225 4.85761 19.6795C4.85376 19.7201 4.85845 19.7611 4.87135 19.7998C4.88426 19.8385 4.90512 19.8741 4.93258 19.9042C4.96004 19.9344 4.9935 19.9585 5.03082 19.975C5.06813 19.9915 5.10849 20 5.14929 20H14.8919C14.9327 20 14.973 19.9915 15.0104 19.975C15.0477 19.9585 15.0812 19.9344 15.1086 19.9042C15.1361 19.874 15.1569 19.8384 15.1698 19.7997C15.1827 19.761 15.1874 19.72 15.1835 19.6793C15.1584 19.4145 15.1307 19.1498 15.1005 18.8855C15.0917 18.8083 15.0525 18.7377 14.9917 18.6894C14.9309 18.6411 14.8533 18.6189 14.7761 18.6277C14.6989 18.6365 14.6284 18.6757 14.5801 18.7365C14.5317 18.7973 14.5095 18.8749 14.5184 18.9521C14.5357 19.1041 14.5525 19.2586 14.5685 19.4141H12.9179C12.9063 19.3688 12.8944 19.3236 12.8823 19.2785C12.8806 19.1588 12.8845 18.6975 13.0225 18.1763C13.2082 17.475 13.5471 16.9665 14.0302 16.6605C14.1628 16.7834 14.2497 16.9476 14.2768 17.1264C14.3105 17.3486 14.3439 17.5804 14.3762 17.8156C14.3867 17.8925 14.4275 17.9622 14.4893 18.0091C14.5512 18.0561 14.6292 18.0765 14.7062 18.066C14.7443 18.0608 14.781 18.0481 14.8143 18.0287C14.8475 18.0093 14.8765 17.9835 14.8998 17.9529C14.9231 17.9222 14.9401 17.8873 14.9498 17.8501C14.9596 17.8129 14.9619 17.7741 14.9567 17.736C14.9248 17.5031 14.8912 17.2704 14.856 17.038C14.793 16.628 14.5541 16.2714 14.2006 16.0596C13.7087 15.7648 13.148 15.4988 12.5341 15.269C12.2027 15.1448 11.8598 15.033 11.5125 14.9341V14.633C13.2612 14.5743 14.7249 13.3719 15.1777 11.7517C16.1334 11.6759 16.8881 10.8746 16.8881 9.89973C16.8881 9.76121 16.8727 9.62297 16.8425 9.48895C16.7831 9.22527 16.6417 9.01016 16.449 8.86465ZM3.73867 9.89973C3.73867 9.80453 3.74917 9.70977 3.76992 9.61797C3.83972 9.30875 4.09429 9.22465 4.2914 9.24664C4.48527 9.26824 4.71066 9.40285 4.71753 9.70953C4.50937 9.62742 4.29245 9.62551 4.08831 9.70785C4.01693 9.73738 3.96009 9.79392 3.93019 9.86515C3.90028 9.93638 3.89971 10.0165 3.92862 10.0882C3.95752 10.1598 4.01356 10.2172 4.08452 10.2477C4.15549 10.2782 4.23564 10.2795 4.30753 10.2512C4.36441 10.2283 4.45605 10.2089 4.59554 10.3045C4.64577 10.3389 4.68757 10.3785 4.718 10.4109V10.6913C4.718 10.8443 4.72706 10.9952 4.74409 11.1437C4.17027 11.0207 3.73867 10.5098 3.73867 9.89973ZM7.58937 18.0434C7.39781 17.3079 7.04363 16.7258 6.5546 16.3314C6.83003 16.1872 7.12456 16.0516 7.43589 15.9258L8.16542 17.9519C8.17074 17.9666 8.17749 17.9805 8.18492 17.9939L8.18437 17.9942C8.19593 18.0152 8.47269 18.5133 8.92113 19.0518C9.02494 19.1768 9.13361 19.2976 9.24687 19.4141H7.7289L7.73265 19.4005C7.73863 19.3791 7.74217 19.357 7.7432 19.3348C7.74433 19.3105 7.76835 18.7307 7.58937 18.0434ZM10.9267 15.1351C10.9267 15.6346 10.5204 16.0411 10.0209 16.0413H10.0201C9.52062 16.041 9.11433 15.6346 9.11433 15.1351V14.6357H10.9267V15.1351H10.9267ZM9.14144 17.5857L9.59757 18.0242L9.1757 18.4298C9.04696 18.2593 8.92563 18.0833 8.81206 17.9023L9.14144 17.5857ZM10.0203 18.4306L10.4901 18.8823C10.3332 19.0542 10.1762 19.2047 10.0203 19.3318C9.86445 19.2047 9.70742 19.0542 9.55054 18.8823L10.0203 18.4306ZM10.0203 17.6178L9.56417 17.1793L10.0205 16.7406L10.4766 17.1791L10.0203 17.6178ZM9.4232 16.502L8.5637 17.3283L7.98445 15.7196C8.18179 15.6508 8.3808 15.587 8.58128 15.528C8.70074 15.9651 9.01425 16.3227 9.4232 16.502ZM10.8649 18.4298L10.443 18.0242L10.8993 17.5855L11.2287 17.9021C11.1151 18.0832 10.9937 18.2593 10.8649 18.4298ZM10.6178 16.502C11.0268 16.3226 11.3403 15.9651 11.4597 15.528C11.6602 15.587 11.8592 15.6509 12.0566 15.7196L11.4773 17.3283L10.6178 16.502ZM5.76394 17.1269C5.79183 16.9451 5.87949 16.7818 6.01062 16.6605C6.4939 16.9665 6.83288 17.475 7.01847 18.1763C7.15652 18.6979 7.16027 19.1594 7.15859 19.2785C7.15074 19.3075 7.13847 19.3536 7.12296 19.4141H5.47273C5.56663 18.498 5.68081 17.6768 5.76394 17.1269ZM12.4517 18.0434C12.2726 18.7307 12.2966 19.3105 12.2977 19.3348C12.2987 19.357 12.3022 19.379 12.3082 19.4005L12.312 19.4141H10.7937C10.9069 19.2976 11.0156 19.1768 11.1193 19.0519C11.5679 18.5133 11.8446 18.0151 11.8562 17.9942L11.8559 17.9941C11.8634 17.9805 11.8702 17.9666 11.8755 17.9518L12.605 15.9257C12.9163 16.0516 13.2109 16.1872 13.4863 16.3314C12.9975 16.7258 12.6433 17.3079 12.4517 18.0434ZM11.3786 14.0496H8.66218C6.81046 14.0496 5.30394 12.5431 5.30394 10.6914V8.16156C6.43359 8.03613 7.35007 7.19414 7.5871 6.10176C7.91163 6.335 8.41945 6.65754 9.11706 6.97961C10.2584 7.50656 12.1457 8.13102 14.7368 8.17523V10.6914C14.7369 12.5431 13.2304 14.0496 11.3786 14.0496ZM15.2967 11.1438C15.3137 10.9953 15.3228 10.8444 15.3228 10.6914V10.4111C15.3533 10.3787 15.3952 10.3391 15.4455 10.3046C15.585 10.209 15.6766 10.2284 15.7335 10.2513C15.7692 10.2661 15.8075 10.2736 15.8462 10.2735C15.8849 10.2734 15.9232 10.2657 15.9589 10.2507C15.9946 10.2357 16.0269 10.2138 16.0541 10.1863C16.0812 10.1587 16.1027 10.1261 16.1172 10.0902C16.1316 10.0543 16.1389 10.0159 16.1384 9.97723C16.138 9.93854 16.1299 9.90032 16.1146 9.86478C16.0993 9.82924 16.0771 9.79708 16.0493 9.77016C16.0215 9.74324 15.9887 9.72209 15.9527 9.70793C15.7485 9.62559 15.5316 9.6275 15.3235 9.70961C15.3303 9.40293 15.5558 9.26836 15.7496 9.24672C15.9465 9.22473 16.2012 9.30887 16.271 9.61805C16.2918 9.7098 16.3023 9.80461 16.3023 9.89977C16.3023 10.5098 15.8706 11.0209 15.2967 11.1438Z" fill="black"/>
    <path d="M7.67155 8.23726C7.41077 8.23726 7.19862 8.58941 7.19862 9.02222C7.19862 9.45503 7.41077 9.80718 7.67155 9.80718C7.93233 9.80718 8.14448 9.45503 8.14448 9.02222C8.14448 8.58941 7.93237 8.23726 7.67155 8.23726Z" fill="black"/>
    <path d="M12.3694 9.80718C12.6306 9.80718 12.8424 9.45574 12.8424 9.02222C12.8424 8.5887 12.6306 8.23726 12.3694 8.23726C12.1083 8.23726 11.8965 8.5887 11.8965 9.02222C11.8965 9.45574 12.1083 9.80718 12.3694 9.80718Z" fill="black"/>
    <path d="M10.4851 11.4981C10.361 11.6222 10.196 11.6906 10.0205 11.6906C9.845 11.6906 9.68 11.6222 9.5559 11.4981C9.50087 11.4435 9.42648 11.413 9.349 11.4132C9.27152 11.4134 9.19727 11.4442 9.14248 11.499C9.0877 11.5538 9.05685 11.6281 9.05669 11.7055C9.05652 11.783 9.08705 11.8574 9.1416 11.9124C9.37636 12.1472 9.68847 12.2765 10.0205 12.2765C10.3526 12.2765 10.6647 12.1472 10.8995 11.9124C10.9544 11.8575 10.9853 11.783 10.9853 11.7053C10.9853 11.6276 10.9544 11.553 10.8995 11.4981C10.8445 11.4431 10.77 11.4123 10.6923 11.4123C10.6146 11.4123 10.5401 11.4431 10.4851 11.4981Z" fill="black"/>
    </g>
    </g>
    <defs>
    <clipPath id="clip0_1221_3534">
    <rect width="20" height="20" fill="white"/>
    </clipPath>
    <clipPath id="clip1_1221_3534">
    <rect width="20" height="20" fill="white"/>
    </clipPath>
    </defs>
    </svg>
    