<svg width="34" height="33" viewBox="0 0 34 33" fill="none" xmlns="http://www.w3.org/2000/svg">
    <path
        d="M34 14.5V13.5C34 6.04416 27.9558 0 20.5 0C13.0442 0 7 6.04416 7 13.5V14.5C7 21.9558 13.0442 28 20.5 28C27.9558 28 34 21.9558 34 14.5Z"
        fill="#FFEAE7" />
    <path
        d="M13.1859 28.7864L15.7883 17.6926C15.812 17.5919 15.8159 17.4875 15.7998 17.3854C15.7837 17.2832 15.7479 17.1852 15.6944 17.0971C15.641 17.0089 15.5709 16.9323 15.4883 16.8716C15.4056 16.8109 15.3119 16.7673 15.2127 16.7433L11.0474 15.7392C10.9165 15.7078 10.7958 15.6424 10.6972 15.5495C10.5987 15.4566 10.5256 15.3394 10.4852 15.2093C10.4447 15.0792 10.4383 14.9407 10.4665 14.8073C10.4947 14.6739 10.5566 14.5502 10.6461 14.4484L20.5428 3.1537C21.0796 2.54176 22.0675 3.06358 21.8804 3.86004L19.278 14.9547C19.2543 15.0554 19.2504 15.1598 19.2665 15.2619C19.2827 15.3641 19.3185 15.4621 19.3719 15.5502C19.4254 15.6384 19.4954 15.715 19.5781 15.7757C19.6608 15.8364 19.7544 15.88 19.8537 15.904L24.0189 16.9081C24.5912 17.0454 24.8114 17.7526 24.4202 18.1981L14.5235 29.4936C13.9868 30.1055 12.9988 29.5837 13.1859 28.7864Z"
        fill="black" />
    <path
        d="M13.9488 30.1905C13.76 30.1905 13.5678 30.1433 13.3883 30.0489C13.149 29.9261 12.9578 29.7246 12.8461 29.4773C12.7345 29.23 12.7089 28.9516 12.7737 28.6877L15.377 17.593C15.3882 17.5471 15.3902 17.4993 15.3831 17.4526C15.3759 17.4058 15.3596 17.3609 15.3352 17.3206C15.3108 17.2803 15.2787 17.2453 15.2408 17.2176C15.2029 17.19 15.16 17.1703 15.1145 17.1596L10.9493 16.1554C10.7468 16.1078 10.5601 16.0072 10.4079 15.8637C10.2556 15.7202 10.1431 15.5388 10.0815 15.3375C10.0181 15.1367 10.0076 14.9227 10.0512 14.7165C10.0947 14.5104 10.1907 14.3194 10.3296 14.1625L20.2263 2.86788C20.4021 2.66244 20.6415 2.52369 20.9054 2.47441C21.1692 2.42513 21.4417 2.46824 21.6782 2.59668C22.1751 2.8593 22.4223 3.40601 22.2928 3.95873L19.6895 15.0543C19.6679 15.1469 19.6834 15.2445 19.7326 15.3255C19.7818 15.4066 19.8607 15.4646 19.952 15.4868L24.1172 16.491C24.5329 16.5906 24.8572 16.8969 24.985 17.3089C25.1137 17.7217 25.0197 18.1603 24.7361 18.4847L14.8402 29.7768C14.6032 30.048 14.2815 30.1905 13.9496 30.1905H13.9488ZM13.5974 28.8859C13.5769 28.9638 13.5837 29.0465 13.6168 29.1198C13.6498 29.1931 13.7071 29.2524 13.7786 29.2876C13.8353 29.3176 14.0368 29.3992 14.207 29.2069L24.1037 17.9131C24.1449 17.8672 24.1734 17.811 24.1864 17.7502C24.1993 17.6895 24.1962 17.6264 24.1773 17.5672C24.1595 17.5077 24.1265 17.4541 24.0816 17.4117C24.0367 17.3693 23.9815 17.3398 23.9217 17.3261L19.7564 16.3219C19.444 16.2464 19.1799 16.0524 19.0114 15.7752C18.8429 15.498 18.7913 15.1719 18.8666 14.8552L21.4691 3.75961C21.4898 3.68187 21.483 3.59925 21.4499 3.52605C21.4168 3.45285 21.3595 3.39369 21.2879 3.35881C21.2186 3.31891 21.1377 3.30504 21.0594 3.31963C20.981 3.33423 20.9103 3.37637 20.8595 3.43863L10.9628 14.7333C10.8418 14.8706 10.8705 15.0217 10.8892 15.0792C10.9078 15.1367 10.9687 15.2783 11.1448 15.3212L15.3101 16.3254C15.6225 16.4 15.8866 16.594 16.0551 16.8712C16.2236 17.1484 16.2752 17.4754 16.1999 17.7921L13.5974 28.8859Z"
        fill="black" />
    <path
        d="M11.3455 28.7864L13.9487 17.6926C13.9724 17.5919 13.9763 17.4874 13.9601 17.3852C13.9439 17.283 13.9081 17.185 13.8545 17.0968C13.801 17.0087 13.7308 16.9321 13.6481 16.8714C13.5653 16.8108 13.4716 16.7672 13.3722 16.7433L9.20695 15.7392C9.07601 15.7078 8.95535 15.6424 8.85679 15.5495C8.75823 15.4566 8.68515 15.3394 8.64471 15.2093C8.60426 15.0792 8.59783 14.9407 8.62604 14.8073C8.65426 14.6739 8.71615 14.5502 8.80567 14.4484L18.7024 3.1537C19.24 2.54176 20.2279 3.06358 20.04 3.86004L17.4384 14.9547C17.4147 15.0554 17.4109 15.1599 17.427 15.2621C17.4432 15.3643 17.4791 15.4623 17.5326 15.5505C17.5862 15.6386 17.6563 15.7152 17.7391 15.7759C17.8218 15.8365 17.9156 15.8801 18.0149 15.904L22.1802 16.9081C22.7525 17.0454 22.9717 17.7526 22.5815 18.1981L12.6839 29.4936C12.1472 30.1055 11.1584 29.5846 11.3463 28.7873L11.3455 28.7864Z"
        fill="#DA260D" />
</svg>
    