<svg width="26" height="27" viewBox="0 0 26 27" fill="none" xmlns="http://www.w3.org/2000/svg">
    <rect x="0.5" y="1.22968" width="25" height="24.4368" rx="8.83543" fill="#225393" />
    <rect x="0.5" y="1.22968" width="25" height="24.4368" rx="8.83543" stroke="white" />
    <path
        d="M19.3548 12.232C19.9487 12.232 20.2463 11.5138 19.8262 11.0937L17.6115 8.87901C17.5652 8.83195 17.51 8.79453 17.4492 8.7689C17.3883 8.74327 17.323 8.72994 17.257 8.72968C17.191 8.72942 17.1256 8.74223 17.0645 8.76738C17.0035 8.79253 16.948 8.82951 16.9013 8.8762C16.8547 8.92289 16.8177 8.97836 16.7926 9.03941C16.7674 9.10046 16.7546 9.16588 16.7549 9.2319C16.7552 9.29792 16.7685 9.36323 16.7942 9.42406C16.8198 9.4849 16.8572 9.54006 16.9043 9.58635L18.5497 11.2318H6.4927C6.36006 11.2318 6.23285 11.2845 6.13905 11.3783C6.04526 11.472 5.99257 11.5993 5.99257 11.7319C5.99257 11.8645 6.04526 11.9917 6.13905 12.0855C6.23285 12.1793 6.36006 12.232 6.4927 12.232H19.3548ZM6.6454 14.6668C6.05125 14.6668 5.75368 15.385 6.17378 15.8051L8.38851 18.02C8.43495 18.0664 8.49009 18.1032 8.55077 18.1284C8.61146 18.1535 8.6765 18.1665 8.74218 18.1665C8.80786 18.1665 8.8729 18.1535 8.93359 18.1284C8.99427 18.1032 9.04941 18.0664 9.09585 18.02C9.1423 17.9735 9.17914 17.9184 9.20427 17.8577C9.22941 17.797 9.24235 17.732 9.24235 17.6663C9.24235 17.6006 9.22941 17.5356 9.20427 17.4749C9.17914 17.4142 9.1423 17.3591 9.09585 17.3126L7.45044 15.6672H19.5075C19.6401 15.6672 19.7673 15.6145 19.8611 15.5207C19.9549 15.4269 20.0076 15.2997 20.0076 15.1671C20.0076 15.0344 19.9549 14.9072 19.8611 14.8134C19.7673 14.7196 19.6401 14.6669 19.5075 14.6669L6.6454 14.6668Z"
        fill="white" />
</svg>
    