<svg width="14" height="15" viewBox="0 0 14 15" fill="none" xmlns="http://www.w3.org/2000/svg">
    <g clip-path="url(#clip0_1221_4163)">
    <path d="M12.629 12.5312C12.5906 12.5978 12.5354 12.653 12.4688 12.6914C12.4023 12.7298 12.3269 12.75 12.25 12.75H1.75004C1.67328 12.7499 1.59789 12.7296 1.53145 12.6912C1.465 12.6528 1.40984 12.5975 1.37149 12.531C1.33314 12.4646 1.31297 12.3891 1.31299 12.3124C1.31301 12.2356 1.33322 12.1602 1.3716 12.0937C2.20449 10.6538 3.48801 9.62132 4.9859 9.13187C4.24497 8.69079 3.66932 8.01869 3.34735 7.21879C3.02537 6.41888 2.97487 5.5354 3.2036 4.70402C3.43233 3.87263 3.92765 3.13932 4.61349 2.61669C5.29933 2.09405 6.13776 1.811 7.00004 1.811C7.86231 1.811 8.70075 2.09405 9.38659 2.61669C10.0724 3.13932 10.5677 3.87263 10.7965 4.70402C11.0252 5.5354 10.9747 6.41888 10.6527 7.21879C10.3308 8.01869 9.75511 8.69079 9.01418 9.13187C10.5121 9.62132 11.7956 10.6538 12.6285 12.0937C12.667 12.1602 12.6873 12.2356 12.6874 12.3124C12.6875 12.3892 12.6673 12.4647 12.629 12.5312Z" fill="#787E86"/>
    </g>
    <defs>
    <clipPath id="clip0_1221_4163">
    <rect width="14" height="14" fill="white" transform="translate(0 0.5)"/>
    </clipPath>
    </defs>
    </svg>
    